<svg xmlns="http://www.w3.org/2000/svg" viewBox="0 0 36 36"><defs><style>.cls-1{fill:#243858;}.cls-2{opacity:0.5;}</style></defs><title>organize-workflow</title><g id="Layer_2" data-name="Layer 2"><g id="N700"><rect class="cls-1" x="12.56" y="14" width="23.44" height="8" rx="1" ry="1"/><rect class="cls-1" width="23.44" height="8" rx="1" ry="1"/><rect class="cls-1" y="28" width="23.44" height="8" rx="1" ry="1"/><g class="cls-2"><path class="cls-1" d="M12.94,32h-2V29a4,4,0,0,1,4-4h4.65a4,4,0,0,0,4-4V14.92a4,4,0,0,0-4-4H14.89a4,4,0,0,1-4-4V4h2V7a2,2,0,0,0,2,2h4.65a6,6,0,0,1,6,6V21a6,6,0,0,1-6,6H14.89a2,2,0,0,0-2,2Z"/></g></g></g></svg>