<svg xmlns="http://www.w3.org/2000/svg" viewBox="0 0 36 31"><defs><style>.cls-1,.cls-2{fill:#243858;}.cls-1{opacity:0.5;}</style></defs><title>chart-line</title><g id="Layer_2" data-name="Layer 2"><g id="N700"><path class="cls-1" d="M1,17a1,1,0,0,1-.68-1.74L12.81,3.81,26,9.9l8.59-3.81a1,1,0,0,1,.81,1.83L26,12.09,13.19,6.19,1.68,16.73A1,1,0,0,1,1,17Z"/><path class="cls-1" d="M1,31a1,1,0,0,1-.71-1.71l9.35-9.35,14.06,2,10.66-8.72a1,1,0,0,1,1.27,1.55L24.29,24.05l-13.94-2L1.71,30.71A1,1,0,0,1,1,31Z"/><circle class="cls-2" cx="26" cy="11" r="3"/><circle class="cls-2" cx="13" cy="5" r="5"/><circle class="cls-2" cx="24" cy="23" r="5"/><circle class="cls-2" cx="10" cy="21" r="4"/></g></g></svg>