<svg xmlns="http://www.w3.org/2000/svg" viewBox="0 0 35.88 35.74"><defs><style>.cls-1{fill:#243858;}</style></defs><title>finance-dollar dotted</title><g id="Layer_2" data-name="Layer 2"><g id="N700"><path class="cls-1" d="M2,18.9A1,1,0,1,0,0,19a17.91,17.91,0,0,0,.7,4,1,1,0,0,0,1.92-.57A15.91,15.91,0,0,1,2,18.9Z"/><path class="cls-1" d="M7.5,30A16.05,16.05,0,0,1,5,27.35a1,1,0,1,0-1.62,1.18,18.06,18.06,0,0,0,2.77,3A1,1,0,1,0,7.5,30Z"/><path class="cls-1" d="M1.36,14.17a1,1,0,0,0,1.24-.68A15.85,15.85,0,0,1,4,10.14a1,1,0,1,0-1.74-1A17.85,17.85,0,0,0,.68,12.93,1,1,0,0,0,1.36,14.17Z"/><path class="cls-1" d="M15.61,2.17A16.1,16.1,0,0,1,17.93,2q.67,0,1.32.05a1,1,0,1,0,.16-2Q18.67,0,17.93,0a18.1,18.1,0,0,0-2.61.19,1,1,0,0,0,.29,2Z"/><path class="cls-1" d="M32.94,12.54a1,1,0,1,0,1.88-.68A17.89,17.89,0,0,0,33,8.19a1,1,0,0,0-1.68,1.09A15.89,15.89,0,0,1,32.94,12.54Z"/><path class="cls-1" d="M10.85,2.51A1,1,0,0,0,9.5,2.09,18,18,0,0,0,6.13,4.41,1,1,0,1,0,7.45,5.92h0a16,16,0,0,1,3-2.06A1,1,0,0,0,10.85,2.51Z"/><path class="cls-1" d="M15.67,33.75a15.84,15.84,0,0,1-3.52-.92,1,1,0,0,0-.72,1.86,17.84,17.84,0,0,0,4,1,1,1,0,1,0,.28-2Z"/><path class="cls-1" d="M32.74,26.28a1,1,0,0,0-1.38.3h0a16,16,0,0,1-2.3,2.82,1,1,0,0,0,1.39,1.43A18,18,0,0,0,33,27.66,1,1,0,0,0,32.74,26.28Z"/><path class="cls-1" d="M35.88,17.88a1,1,0,0,0-2,0V18a16,16,0,0,1-.41,3.61,1,1,0,1,0,1.95.45A18,18,0,0,0,35.88,18Z"/><path class="cls-1" d="M28.84,3.7a18,18,0,0,0-3.51-2.1,1,1,0,1,0-.83,1.82h0a15.94,15.94,0,0,1,3.12,1.87A1,1,0,1,0,28.84,3.7Z"/><path class="cls-1" d="M24.57,32.47h0a15.83,15.83,0,0,1-3.46,1.13,1,1,0,0,0,.4,2,17.83,17.83,0,0,0,3.89-1.27,1,1,0,1,0-.83-1.82Z"/><path class="cls-1" d="M23.26,21.55A4.6,4.6,0,0,0,18.66,17a2.59,2.59,0,1,1,0-5.19h0a2.6,2.6,0,0,1,2.59,2.59,1,1,0,1,0,2,0,4.59,4.59,0,0,0-3.59-4.48V8.37a1,1,0,1,0-2,0V9.89a4.59,4.59,0,0,0,1,9.07,2.59,2.59,0,1,1-2.59,2.59,1,1,0,1,0-2,0h0A4.59,4.59,0,0,0,17.66,26v1.51a1,1,0,0,0,2,0V26A4.59,4.59,0,0,0,23.26,21.55Z"/></g></g></svg>