<?xml version="1.0" encoding="utf-8"?>
<!-- Generator: Adobe Illustrator 21.0.2, SVG Export Plug-In . SVG Version: 6.00 Build 0)  -->
<svg version="1.1" id="Layer_1" xmlns="http://www.w3.org/2000/svg" xmlns:xlink="http://www.w3.org/1999/xlink" x="0px" y="0px"
	 viewBox="0 0 36 36" style="enable-background:new 0 0 36 36;" xml:space="preserve">
<style type="text/css">
	.st0{fill:#243858;}
	.st1{opacity:0.5;}
</style>
<path class="st0" d="M27.5,7.5H1c-0.6,0-1,0.4-1,1V35c0,0.6,0.4,1,1,1h26.5c0.6,0,1-0.4,1-1V8.5C28.5,8,28,7.5,27.5,7.5z M26.5,34H2
	V9.5h24.5V34z"/>
<g class="st1">
	<g>
		<path class="st0" d="M35,0.1H8.5c-0.6,0-1,0.4-1,1v26.5c0,0.6,0.4,1,1,1H35c0.6,0,1-0.4,1-1V1.1C36,0.5,35.6,0.1,35,0.1z M34,16.5
			l-10,10h-7.8L34,8.8V16.5z M9.5,12.1l10-10h7.8L9.5,19.8V12.1z M16.7,2.1L9.5,9.2V2.1H16.7z M9.5,22.7L30.1,2.1H34v3.9L13.4,26.5
			H9.5V22.7z M26.8,26.5l7.2-7.2v7.2H26.8z"/>
	</g>
	<g>
		<path class="st0" d="M35,0.1H8.5c-0.6,0-1,0.4-1,1v26.5c0,0.6,0.4,1,1,1H35c0.6,0,1-0.4,1-1V1.1C36,0.5,35.6,0.1,35,0.1z M34,16.5
			l-10,10h-7.8L34,8.8V16.5z M9.5,12.1l10-10h7.8L9.5,19.8V12.1z M16.7,2.1L9.5,9.2V2.1H16.7z M9.5,22.7L30.1,2.1H34v3.9L13.4,26.5
			H9.5V22.7z M26.8,26.5l7.2-7.2v7.2H26.8z"/>
	</g>
</g>
</svg>
