<svg xmlns="http://www.w3.org/2000/svg" viewBox="0 0 36 36"><defs><style>.cls-1,.cls-2{fill:#243858;}.cls-1{opacity:0.5;}</style></defs><title>organize-expand</title><g id="Layer_2" data-name="Layer 2"><g id="N700"><path class="cls-1" d="M24,4a1,1,0,0,0,0,2h4.59L18.29,16.29a1,1,0,1,0,1.41,1.41L30,7.41V12a1,1,0,0,0,2,0V4Z"/><rect class="cls-2" x="3" y="22.63" width="2" height="1.38"/><rect class="cls-2" x="3" y="8.82" width="2" height="2.76"/><rect class="cls-2" x="3" y="13.42" width="2" height="2.76"/><rect class="cls-2" x="3" y="18.02" width="2" height="2.76"/><rect class="cls-2" x="3" y="4.22" width="2" height="2.76"/><path class="cls-2" d="M3,1V2.38H5V2h.38V0H4A1,1,0,0,0,3,1Z"/><rect class="cls-2" x="15.97" width="2.65" height="2"/><rect class="cls-2" x="20.38" width="2.65" height="2"/><rect class="cls-2" x="24.8" width="2.65" height="2"/><rect class="cls-2" x="11.55" width="2.65" height="2"/><rect class="cls-2" x="7.14" width="2.65" height="2"/><rect class="cls-2" x="29.21" width="2.65" height="2"/><path class="cls-2" d="M35,0H33.63V2H34v.38h2V1A1,1,0,0,0,35,0Z"/><rect class="cls-2" x="34" y="4.14" width="2" height="2.65"/><rect class="cls-2" x="34" y="12.97" width="2" height="2.65"/><rect class="cls-2" x="34" y="8.55" width="2" height="2.65"/><rect class="cls-2" x="34" y="17.38" width="2" height="2.65"/><rect class="cls-2" x="34" y="26.21" width="2" height="2.65"/><rect class="cls-2" x="34" y="21.8" width="2" height="2.65"/><path class="cls-2" d="M34,31h-.37v2H35a1,1,0,0,0,1-1V30.63H34Z"/><rect class="cls-2" x="29.02" y="31" width="2.76" height="2"/><rect class="cls-2" x="15.22" y="31" width="2.76" height="2"/><rect class="cls-2" x="24.42" y="31" width="2.76" height="2"/><rect class="cls-2" x="19.82" y="31" width="2.76" height="2"/><rect class="cls-2" x="12" y="31" width="1.38" height="2"/><rect class="cls-2" y="20" width="16" height="16"/></g></g></svg>