<?xml version="1.0" encoding="utf-8"?>
<!-- Generator: Adobe Illustrator 21.0.2, SVG Export Plug-In . SVG Version: 6.00 Build 0)  -->
<svg version="1.1" id="Layer_1" xmlns="http://www.w3.org/2000/svg" xmlns:xlink="http://www.w3.org/1999/xlink" x="0px" y="0px"
	 viewBox="0 0 177.4 207.2" style="enable-background:new 0 0 177.4 207.2;" xml:space="preserve">
<style type="text/css">
	.st0{fill:#42526E;}
	.st1{fill:none;stroke:#42526E;stroke-width:17.09;stroke-miterlimit:10;}
	.st2{fill:#0065FF;}
	.st3{fill:none;stroke:#0065FF;stroke-width:17.09;stroke-miterlimit:10;}
	.st4{fill:url(#SVGID_1_);}
	.st5{fill:#0052CC;}
	.st6{fill:url(#SVGID_2_);}
	.st7{fill:none;stroke:#79F2C0;stroke-width:17.09;stroke-miterlimit:10;}
</style>
<title>Software-Git</title>
<g>
	<g id="Layer_2">
		<g id="Software">
			<path id="_Clipping_Path_3" class="st0" d="M38.7,83.9c0,10.7,8.7,19.3,19.3,19.4c23.1,0.1,41.8,18.8,41.9,41.9v13
				c-0.2,6.2-5.4,11.1-11.6,10.9c-6-0.2-10.7-8.3-10.8-14.3l0.1-9.6c0-10.7-8.8-19.4-19.5-19.4c-23.1-0.1-41.8-18.8-41.9-41.9
				L38.7,83.9z"/>
			<circle class="st1" cx="27.4" cy="65.1" r="18.9"/>
			<rect id="_Clipping_Path_4" x="77.4" y="50" class="st2" width="22.5" height="104.8"/>
			<circle class="st3" cx="88.7" cy="27.4" r="18.9"/>
			
				<linearGradient id="SVGID_1_" gradientUnits="userSpaceOnUse" x1="1285.3182" y1="22.4652" x2="1286.0283" y2="21.7452" gradientTransform="matrix(54.81 0 0 54.81 -70314.6875 -1124.8701)">
				<stop  offset="0" style="stop-color:#57D9A3"/>
				<stop  offset="0.33" style="stop-color:#57D9A3"/>
				<stop  offset="1" style="stop-color:#00875A"/>
			</linearGradient>
			<path class="st4" d="M158.7,98.4c1.7-4.6,2.6-9.5,2.6-14.4h-22.5c0,4.1-1.3,8.1-3.7,11.4C142,99.9,150.8,101,158.7,98.4
				L158.7,98.4z"/>
			<path class="st5" d="M77.4,127.5l0,27.3h21.8c0-2.1,0.1-22.5,0.7-24.4V98.8C88.3,104.4,80.1,115.2,77.4,127.5z"/>
			
				<linearGradient id="SVGID_2_" gradientUnits="userSpaceOnUse" x1="62.9725" y1="15.1754" x2="158.0586" y2="110.2614" gradientTransform="matrix(1 0 0 -1 0 208)">
				<stop  offset="0" style="stop-color:#36B37E"/>
				<stop  offset="1" style="stop-color:#79F2C0"/>
			</linearGradient>
			<path class="st6" d="M150,99.8c-5.3,0-10.5-1.6-15-4.5c-3.6,5-9.5,8-15.7,8c-23.1,0.1-41.9,16.8-41.9,39.9l0,11.6
				c-13.8,6.2-19.9,22.4-13.7,36.2C70,204.9,86.2,211,100,204.8c13.8-6.2,19.9-22.4,13.7-36.2c-2.7-6.1-7.6-11-13.7-13.7v-9.6
				c0-10.7,8.7-19.4,19.4-19.4c17.6,0,33.3-11,39.3-27.5C155.9,99.3,153,99.8,150,99.8z M88.7,190.1c-5.7,0-10.3-4.6-10.3-10.3
				c0-5.7,4.6-10.3,10.3-10.3c5.7,0,10.3,4.6,10.3,10.3C99,185.5,94.4,190.1,88.7,190.1z"/>
			<circle class="st7" cx="149.9" cy="65.1" r="18.9"/>
		</g>
	</g>
</g>
</svg>
