<?xml version="1.0" encoding="utf-8"?>
<!-- Generator: Adobe Illustrator 21.1.0, SVG Export Plug-In . SVG Version: 6.00 Build 0)  -->
<svg version="1.1" id="Layer_1" xmlns="http://www.w3.org/2000/svg" xmlns:xlink="http://www.w3.org/1999/xlink" x="0px" y="0px"
	 viewBox="0 0 243.8 184.6" style="enable-background:new 0 0 243.8 184.6;" xml:space="preserve">
<style type="text/css">
	.st0{fill:#DFE1E5;}
	.st1{fill:url(#SVGID_1_);}
	.st2{fill:#EBECF0;}
	.st3{fill:#344563;}
	.st4{fill:#A5ADBA;}
	.st5{fill:#0065FF;}
	.st6{fill:none;stroke:#0065FF;stroke-width:2;stroke-miterlimit:10;}
	.st7{fill:none;stroke:#253858;stroke-width:2;stroke-miterlimit:10;}
	.st8{fill:none;stroke:#253858;stroke-width:2;stroke-miterlimit:10;stroke-dasharray:10.02,6.01;}
	.st9{fill:#253858;}
	.st10{fill:#57D9A3;}
	.st11{fill:#FFAB00;}
</style>
<title>Software-Hierarchy Window</title>
<g id="Layer_2">
	<g id="Software">
		<rect class="st0" width="243.8" height="184.6"/>
		
			<linearGradient id="SVGID_1_" gradientUnits="userSpaceOnUse" x1="44.6707" y1="196.4739" x2="187.1293" y2="54.0253" gradientTransform="matrix(1 0 0 1 0 -91)">
			<stop  offset="0" style="stop-color:#C1C7D0;stop-opacity:0.1"/>
			<stop  offset="1" style="stop-color:#C1C7D0"/>
		</linearGradient>
		<path class="st1" d="M243.8,36.8c-69.2-6-108.9,0.9-132.5,8.7c-4.7,1.5-10.7,3.8-20.5,6.3c-35.6,9.4-68.6,10-90.8,9V19.7h243.8
			V36.8z"/>
		<rect class="st2" width="243.8" height="19.7"/>
		<circle class="st3" cx="15.7" cy="9.8" r="5.1"/>
		<circle class="st4" cx="32.4" cy="9.8" r="5.1"/>
		<circle class="st5" cx="49" cy="9.8" r="5.1"/>
		<polyline class="st6" points="59.4,140.4 59.4,104.6 183.6,104.6 		"/>
		<line class="st7" x1="121.5" y1="59.1" x2="121.5" y2="64.1"/>
		<line class="st8" x1="121.5" y1="74.1" x2="121.5" y2="135.2"/>
		<line class="st7" x1="121.5" y1="134.2" x2="121.5" y2="139.2"/>
		<polygon class="st9" points="99.5,157.2 121.5,126.1 143.6,157.2 		"/>
		<path class="st5" d="M59.4,124.8L59.4,124.8c8.6,0,15.6,7,15.6,15.6l0,0c0,8.6-7,15.6-15.6,15.6l0,0c-8.6,0-15.6-7-15.6-15.6l0,0
			C43.9,131.8,50.8,124.8,59.4,124.8z"/>
		<path class="st5" d="M121.5,48.5L121.5,48.5c8.6,0,15.6,7,15.6,15.6l0,0c0,8.6-7,15.6-15.6,15.6l0,0c-8.6,0-15.6-7-15.6-15.6l0,0
			C106,55.5,112.9,48.5,121.5,48.5z"/>
		<polyline class="st6" points="59.4,64.1 121.5,64.1 183.6,64.1 183.6,104.6 		"/>
		<path class="st10" d="M59.4,48.5L59.4,48.5c8.6,0,15.6,7,15.6,15.6l0,0c0,8.6-7,15.6-15.6,15.6l0,0c-8.6,0-15.6-7-15.6-15.6l0,0
			C43.9,55.5,50.8,48.5,59.4,48.5z"/>
		<rect x="168.1" y="89.1" class="st11" width="31.1" height="31.1"/>
	</g>
</g>
</svg>
