<?xml version="1.0" encoding="utf-8"?>
<!-- Generator: Adobe Illustrator 23.0.4, SVG Export Plug-In . SVG Version: 6.00 Build 0)  -->
<svg version="1.1" id="Layer_1" xmlns="http://www.w3.org/2000/svg" xmlns:xlink="http://www.w3.org/1999/xlink" x="0px" y="0px"
	 viewBox="0 0 1840 960" style="enable-background:new 0 0 1840 960;" xml:space="preserve">
<style type="text/css">
	.st0{clip-path:url(#XMLID_3_);}
	.st1{fill:#A5ADBA;}
	.st2{fill:url(#SVGID_1_);}
	.st3{fill:url(#SVGID_2_);}
	.st4{fill:url(#SVGID_3_);}
	.st5{opacity:0.4;}
	.st6{fill:url(#SVGID_4_);}
	.st7{fill:url(#SVGID_5_);}
	.st8{fill:url(#XMLID_4_);}
	.st9{fill:none;}
	.st10{fill:#091E42;}
	.st11{opacity:0.6;fill:#00C7E5;}
	.st12{fill:#FFFFFF;}
	.st13{fill:#0052CC;}
	.st14{fill:#00A3BF;}
	.st15{fill:#EBECF0;}
	.st16{fill:#DFE1E5;}
	.st17{fill:#5E6C84;}
	.st18{fill:url(#SVGID_6_);}
	.st19{fill:#FF991F;}
	.st20{fill:url(#SVGID_7_);}
	.st21{fill:#A27F68;}
	.st22{fill:#0065FF;}
	.st23{fill:#344563;}
	.st24{fill:#2684FF;}
	.st25{fill:#8C715D;}
	.st26{fill:#172B4D;}
	.st27{fill:#F0D0B4;}
	.st28{fill:#FFAB00;}
	.st29{fill:#B3BAC5;}
	.st30{fill:#C1C7D0;}
	.st31{fill:url(#SVGID_8_);}
	.st32{fill:url(#SVGID_9_);}
	.st33{fill:url(#SVGID_10_);}
	.st34{fill:url(#SVGID_11_);}
	.st35{fill:url(#SVGID_12_);}
	.st36{fill:url(#SVGID_13_);}
	.st37{fill:url(#SVGID_14_);}
	.st38{fill:url(#SVGID_15_);}
	.st39{fill:url(#SVGID_16_);}
	.st40{fill:url(#SVGID_17_);}
	.st41{fill:url(#SVGID_18_);}
	.st42{fill:url(#SVGID_19_);}
	.st43{fill:none;stroke:url(#SVGID_20_);stroke-width:17.2747;stroke-miterlimit:10;}
	.st44{fill:url(#XMLID_5_);}
	.st45{opacity:0.1;fill:#091E42;}
	.st46{opacity:0.1;clip-path:url(#XMLID_6_);fill:#B3BAC5;}
	.st47{fill:url(#SVGID_21_);}
	.st48{fill:url(#SVGID_22_);}
	.st49{fill:url(#SVGID_23_);}
	.st50{fill:url(#SVGID_24_);}
	.st51{fill:url(#SVGID_25_);}
	.st52{fill:url(#SVGID_26_);}
	.st53{fill:url(#SVGID_27_);}
	.st54{fill:url(#SVGID_28_);}
	.st55{fill:url(#SVGID_29_);}
	.st56{fill:none;stroke:#FFFFFF;stroke-width:6.109;stroke-miterlimit:10;}
	.st57{fill:#7A869A;}
	.st58{fill:#F4F5F7;}
	.st59{opacity:0.3;fill:#C1C7D0;}
	.st60{fill:#4C9AFF;}
	.st61{fill:#FFC400;}
	.st62{fill:#FFE380;}
	.st63{fill:#00B8D9;}
	.st64{fill:#B3F5FF;}
	.st65{fill:#79E2F2;}
	.st66{fill:url(#SVGID_30_);}
	.st67{opacity:0.4;fill:#A5ADBA;}
	.st68{opacity:0.5;}
	.st69{fill:#8993A4;}
	.st70{fill:#97A0AF;}
	.st71{fill:#253858;}
	.st72{fill:#FF8B00;}
	.st73{fill:#505F79;}
	.st74{fill:#162B4C;}
	.st75{fill:#27375C;}
</style>
<g>
	<defs>
		<rect id="XMLID_1_" width="1840" height="960"/>
	</defs>
	<use xlink:href="#XMLID_1_"  style="overflow:visible;fill:#091E42;"/>
	<clipPath id="XMLID_3_">
		<use xlink:href="#XMLID_1_"  style="overflow:visible;"/>
	</clipPath>
	<g class="st0">
		<circle class="st1" cx="1091.8" cy="240.6" r="12.9"/>
		<circle class="st1" cx="1048.6" cy="240.6" r="12.9"/>
		<linearGradient id="SVGID_1_" gradientUnits="userSpaceOnUse" x1="1162.3309" y1="963.1892" x2="1162.3309" y2="897.03">
			<stop  offset="0" style="stop-color:#344563;stop-opacity:0"/>
			<stop  offset="1" style="stop-color:#344563"/>
		</linearGradient>
		<path class="st2" d="M1053.6,963.2c0.4-2.8,1.4-7,4.6-10.6c6.1-6.7,13.5-3.5,22-8.9c9.7-6.2,5.8-14.1,14.7-20
			c9.9-6.6,16.5,2,29.6-3.5c12.8-5.3,11.9-15.8,26.4-21c1.7-0.6,8.7-3,17.2-1.8c16.1,2.2,18.5,14.8,33.9,23.8
			c21.7,12.7,36.9-0.7,53.5,11.9c8.9,6.8,13.6,17.6,15.6,30.1C1198.6,963.2,1126.1,963.2,1053.6,963.2z"/>
		
			<linearGradient id="SVGID_2_" gradientUnits="userSpaceOnUse" x1="1126.5642" y1="964.4901" x2="1126.5642" y2="813.1948" gradientTransform="matrix(-1 0 0 1 1686.4395 0)">
			<stop  offset="0" style="stop-color:#344563;stop-opacity:0"/>
			<stop  offset="1" style="stop-color:#344563"/>
		</linearGradient>
		<path class="st3" d="M311.1,964.5c0.9-6.4,3.2-16.1,10.4-24.1c13.9-15.4,31-8,50.4-20.4c22.1-14.1,13.3-32.2,33.7-45.8
			c22.7-15.2,37.6,4.6,67.7-7.9c29.3-12.2,27.3-36.2,60.4-48.1c3.8-1.4,20-6.9,39.3-4.2c36.8,5,42.3,33.9,77.5,54.5
			c49.7,29.1,84.4-1.7,122.3,27.2c20.3,15.5,31,40.3,35.8,68.9C642.8,964.5,477,964.5,311.1,964.5z"/>
		<linearGradient id="SVGID_3_" gradientUnits="userSpaceOnUse" x1="574.4873" y1="642.9991" x2="574.4873" y2="541.9971">
			<stop  offset="0" style="stop-color:#344563;stop-opacity:0"/>
			<stop  offset="1" style="stop-color:#344563"/>
		</linearGradient>
		<path class="st4" d="M704.6,643H444.4c11.7,0,21.1-9.5,21.1-21.1s9.5-21.1,21.1-21.1c0.4,0,0.9,0,1.3,0c7.8,0.5,15.3-3,19.7-9.5
			c6-8.8,16-14.6,27.4-14.6c1.7,0,3.5,0.1,5.1,0.4c8.8,1.4,17.6-2.5,22.1-10.2c9.3-15.7,26.8-26,46.7-24.8
			c24.3,1.5,44.3,20.5,47,44.7c0.1,0.6,0.1,1.3,0.2,1.9c0.4,6.1,4.7,11.2,10.7,12.5c0.3,0.1,0.5,0.1,0.8,0.2
			c9.4,2.4,15.6,11.2,15.8,20.9C683.7,633.8,693,643,704.6,643z"/>
		<g class="st5">
			
				<linearGradient id="SVGID_4_" gradientUnits="userSpaceOnUse" x1="598.2267" y1="924.2148" x2="1324.4178" y2="924.2148" gradientTransform="matrix(0.9986 -5.224503e-02 5.224503e-02 0.9986 -144.0237 55.2769)">
				<stop  offset="0" style="stop-color:#FFC400;stop-opacity:0"/>
				<stop  offset="1" style="stop-color:#FFC400"/>
			</linearGradient>
			<path class="st6" d="M912.4,1007.7c-1.7,0-3.1-1.4-3.1-3.1c0-1.7,1.4-3.1,3.1-3.1c6,0,12.2-0.1,18.2-0.4c1.7-0.1,3.1,1.2,3.2,2.9
				c0.1,1.7-1.2,3.1-2.9,3.2C924.7,1007.5,918.5,1007.7,912.4,1007.7z M894.1,1007.3c0,0-0.1,0-0.1,0c-2.4-0.1-4.7-0.2-6.9-0.3
				c-3.7-0.2-7.6-0.5-11.5-0.8c-1.7-0.1-2.9-1.6-2.8-3.3c0.1-1.7,1.6-3,3.3-2.8c3.9,0.3,7.6,0.5,11.3,0.7c2.2,0.1,4.5,0.2,6.8,0.3
				c1.7,0.1,3,1.5,2.9,3.2C897,1006,895.7,1007.3,894.1,1007.3z M949,1006.2c-1.6,0-2.9-1.2-3-2.8c-0.1-1.7,1.1-3.2,2.8-3.3
				c6-0.5,12.1-1.1,18.1-1.8c1.7-0.2,3.2,1,3.4,2.7c0.2,1.7-1,3.2-2.7,3.4c-6.1,0.7-12.3,1.3-18.4,1.8
				C949.2,1006.2,949.1,1006.2,949,1006.2z M857.5,1004.5c-0.1,0-0.2,0-0.3,0c-6-0.7-12.1-1.4-18.3-2.3c-1.7-0.2-2.8-1.8-2.6-3.4
				c0.2-1.7,1.8-2.8,3.4-2.6c6.1,0.9,12.2,1.6,18.1,2.3c1.7,0.2,2.9,1.7,2.7,3.4C860.4,1003.4,859,1004.5,857.5,1004.5z M985.4,1002
				c-1.5,0-2.8-1.1-3-2.6c-0.3-1.7,0.9-3.2,2.6-3.5c5.9-0.9,12-2,18-3.1c1.6-0.3,3.3,0.8,3.6,2.4c0.3,1.7-0.8,3.3-2.4,3.6
				c-6.1,1.2-12.2,2.2-18.2,3.1C985.7,1002,985.5,1002,985.4,1002z M821.2,999.5c-0.2,0-0.3,0-0.5,0c-6-1-12.1-2.1-18.1-3.3
				c-1.7-0.3-2.7-1.9-2.4-3.6c0.3-1.7,1.9-2.7,3.6-2.4c6,1.2,12,2.2,18,3.2c1.7,0.3,2.8,1.9,2.5,3.5
				C824,998.4,822.7,999.5,821.2,999.5z M1021.4,995.1c-1.4,0-2.7-1-3-2.4c-0.4-1.6,0.7-3.3,2.3-3.7c5.9-1.3,11.8-2.8,17.7-4.3
				c1.6-0.4,3.3,0.5,3.7,2.2c0.4,1.6-0.5,3.3-2.2,3.7c-6,1.6-12,3-17.9,4.4C1021.8,995.1,1021.6,995.1,1021.4,995.1z M785.2,992.5
				c-0.2,0-0.4,0-0.7-0.1c-5.9-1.3-12-2.7-17.9-4.1c-1.6-0.4-2.6-2.1-2.2-3.7c0.4-1.6,2-2.6,3.7-2.2c5.9,1.4,11.9,2.8,17.8,4.1
				c1.6,0.4,2.7,2,2.3,3.6C787.9,991.5,786.6,992.5,785.2,992.5z M1056.8,985.8c-1.3,0-2.5-0.9-2.9-2.2c-0.5-1.6,0.4-3.3,2.1-3.8
				c5.7-1.7,11.6-3.6,17.4-5.5c1.6-0.5,3.3,0.3,3.9,1.9c0.5,1.6-0.3,3.3-1.9,3.9c-5.9,1.9-11.8,3.8-17.6,5.5
				C1057.4,985.8,1057.1,985.8,1056.8,985.8z M749.6,983.8c-0.3,0-0.5,0-0.8-0.1c-5.9-1.6-11.8-3.2-17.7-4.9
				c-1.6-0.5-2.6-2.2-2.1-3.8c0.5-1.6,2.2-2.6,3.8-2.1c5.8,1.7,11.8,3.4,17.6,4.9c1.6,0.4,2.6,2.1,2.2,3.7
				C752.2,982.9,750.9,983.8,749.6,983.8z M1091.6,974.3c-1.2,0-2.4-0.8-2.9-2c-0.6-1.6,0.2-3.3,1.8-3.9c5.7-2.1,11.4-4.3,17-6.5
				c1.6-0.6,3.3,0.1,4,1.7c0.6,1.6-0.1,3.3-1.7,4c-5.7,2.3-11.5,4.5-17.2,6.6C1092.3,974.2,1092,974.3,1091.6,974.3z M714.4,973.6
				c-0.3,0-0.6,0-0.9-0.1c-5.8-1.8-11.7-3.7-17.5-5.7c-1.6-0.5-2.5-2.3-1.9-3.9c0.5-1.6,2.3-2.5,3.9-1.9c5.8,2,11.6,3.9,17.4,5.7
				c1.6,0.5,2.5,2.2,2,3.8C716.9,972.7,715.7,973.6,714.4,973.6z M679.7,961.8c-0.3,0-0.7-0.1-1-0.2c-5.7-2.1-11.5-4.3-17.2-6.5
				c-1.6-0.6-2.4-2.4-1.7-4c0.6-1.6,2.4-2.4,4-1.7c5.7,2.2,11.4,4.4,17.1,6.4c1.6,0.6,2.4,2.3,1.8,3.9
				C682.1,961,680.9,961.8,679.7,961.8z M1125.6,960.7c-1.2,0-2.3-0.7-2.8-1.8c-0.7-1.5,0-3.3,1.6-4c5.6-2.4,11.2-4.9,16.6-7.5
				c1.5-0.7,3.3-0.1,4.1,1.5c0.7,1.5,0.1,3.3-1.5,4.1c-5.5,2.6-11.2,5.1-16.8,7.6C1126.5,960.6,1126,960.7,1125.6,960.7z
				 M645.5,948.5c-0.4,0-0.8-0.1-1.2-0.2c-5.7-2.4-11.4-4.8-16.9-7.2c-1.5-0.7-2.2-2.5-1.6-4c0.7-1.5,2.5-2.3,4-1.6
				c5.5,2.4,11.2,4.8,16.8,7.2c1.6,0.6,2.3,2.4,1.7,4C647.8,947.8,646.7,948.5,645.5,948.5z M1158.8,945.2c-1.1,0-2.2-0.6-2.7-1.7
				c-0.8-1.5-0.1-3.3,1.4-4.1c5.4-2.7,10.8-5.5,16.2-8.4c1.5-0.8,3.3-0.2,4.1,1.3c0.8,1.5,0.2,3.3-1.3,4.1
				c-5.4,2.9-10.9,5.7-16.3,8.4C1159.8,945.1,1159.3,945.2,1158.8,945.2z M611.9,933.8c-0.4,0-0.9-0.1-1.3-0.3
				c-5.6-2.6-11.1-5.3-16.6-8c-1.5-0.7-2.1-2.6-1.4-4.1c0.7-1.5,2.6-2.1,4.1-1.4c5.4,2.7,10.9,5.3,16.5,7.9c1.5,0.7,2.2,2.5,1.5,4.1
				C614.2,933.1,613.1,933.8,611.9,933.8z M1191.2,927.9c-1.1,0-2.1-0.6-2.7-1.6c-0.8-1.5-0.3-3.3,1.2-4.2c5.3-3,10.6-6.1,15.8-9.2
				c1.4-0.9,3.3-0.4,4.2,1.1c0.9,1.4,0.4,3.3-1.1,4.2c-5.2,3.1-10.6,6.2-15.9,9.2C1192.2,927.8,1191.7,927.9,1191.2,927.9z
				 M579.1,917.5c-0.5,0-1-0.1-1.4-0.3c-5.4-2.8-10.9-5.8-16.2-8.7c-1.5-0.8-2-2.7-1.2-4.2c0.8-1.5,2.7-2,4.2-1.2
				c5.3,2.9,10.7,5.8,16.1,8.6c1.5,0.8,2.1,2.6,1.3,4.1C581.2,916.9,580.2,917.5,579.1,917.5z M1222.6,909.2c-1,0-2-0.5-2.6-1.4
				c-0.9-1.4-0.5-3.3,1-4.2l1-0.6c1.4-0.9,3.3-0.5,4.2,0.9s0.5,3.3-0.9,4.2l-1,0.6C1223.8,909,1223.2,909.2,1222.6,909.2z
				 M547,899.8c-0.5,0-1.1-0.1-1.5-0.4c-5.3-3.1-10.6-6.3-15.8-9.5c-1.4-0.9-1.9-2.8-1-4.2c0.9-1.4,2.8-1.9,4.2-1
				c5.1,3.2,10.4,6.3,15.7,9.4c1.5,0.9,1.9,2.7,1.1,4.2C549.1,899.3,548,899.8,547,899.8z M515.8,880.6c-0.6,0-1.1-0.2-1.7-0.5
				c-5.2-3.4-10.3-6.8-15.3-10.2c-1.4-1-1.7-2.9-0.8-4.2c1-1.4,2.9-1.7,4.2-0.8c4.9,3.4,10,6.8,15.2,10.1c1.4,0.9,1.8,2.8,0.9,4.2
				C517.8,880.1,516.8,880.6,515.8,880.6z"/>
		</g>
		<g class="st5">
			<linearGradient id="SVGID_5_" gradientUnits="userSpaceOnUse" x1="365.0866" y1="550.5258" x2="1480.6565" y2="550.5258">
				<stop  offset="0" style="stop-color:#00C7E5;stop-opacity:0"/>
				<stop  offset="1" style="stop-color:#00C7E5"/>
			</linearGradient>
			<path class="st7" d="M743.5,663.8c-1.8,0-3.6,0-5.4,0c-1.7,0-3-1.4-3-3.1c0-1.7,1.4-3,3.1-3c0,0,0,0,0,0c6.1,0.1,12.2,0,18.2-0.1
				c1.6-0.1,3.1,1.3,3.1,3c0,1.7-1.3,3.1-3,3.1C752.2,663.8,747.8,663.8,743.5,663.8z M719.7,663.3c0,0-0.1,0-0.1,0
				c-6.1-0.3-12.3-0.6-18.4-1.1c-1.7-0.1-2.9-1.6-2.8-3.3c0.1-1.7,1.6-2.9,3.3-2.8c6,0.5,12.2,0.8,18.2,1.1c1.7,0.1,3,1.5,2.9,3.2
				C722.7,662,721.4,663.3,719.7,663.3z M774.7,662.9c-1.6,0-2.9-1.3-3-2.9c-0.1-1.7,1.2-3.1,2.9-3.2c6.1-0.4,12.2-0.8,18.2-1.4
				c1.7-0.2,3.2,1.1,3.3,2.7c0.2,1.7-1.1,3.2-2.7,3.3c-6,0.6-12.2,1.1-18.4,1.4C774.8,662.9,774.8,662.9,774.7,662.9z M683.2,660.5
				c-0.1,0-0.2,0-0.3,0c-6-0.7-12.2-1.4-18.3-2.3c-1.7-0.2-2.8-1.8-2.6-3.4c0.2-1.7,1.8-2.8,3.4-2.6c6,0.8,12.1,1.6,18.1,2.2
				c1.7,0.2,2.9,1.7,2.7,3.4C686.1,659.4,684.7,660.5,683.2,660.5z M811.2,659.4c-1.5,0-2.8-1.1-3-2.6c-0.2-1.7,0.9-3.2,2.6-3.4
				c6-0.8,12.1-1.8,18-2.8c1.7-0.3,3.2,0.8,3.5,2.5c0.3,1.7-0.8,3.2-2.5,3.5c-6,1.1-12.1,2-18.2,2.8
				C811.4,659.3,811.3,659.4,811.2,659.4z M646.9,655.5c-0.2,0-0.3,0-0.5,0c-6-1-12.1-2.2-18.1-3.4c-1.7-0.3-2.7-1.9-2.4-3.6
				c0.3-1.7,1.9-2.7,3.6-2.4c6,1.2,12,2.3,17.9,3.3c1.7,0.3,2.8,1.9,2.5,3.5C649.6,654.4,648.4,655.5,646.9,655.5z M847.3,653
				c-1.4,0-2.7-1-3-2.4c-0.4-1.6,0.7-3.3,2.3-3.6c5.9-1.3,11.9-2.7,17.7-4.3c1.6-0.4,3.3,0.5,3.7,2.2c0.4,1.6-0.5,3.3-2.2,3.7
				c-5.9,1.6-11.9,3-17.9,4.3C847.7,653,847.5,653,847.3,653z M611,648.3c-0.2,0-0.5,0-0.7-0.1c-6-1.4-12-2.9-17.9-4.4
				c-1.6-0.4-2.6-2.1-2.2-3.7c0.4-1.6,2.1-2.6,3.7-2.2c5.8,1.5,11.8,3,17.7,4.4c1.6,0.4,2.7,2,2.3,3.7
				C613.6,647.3,612.4,648.3,611,648.3z M882.7,643.6c-1.3,0-2.5-0.8-2.9-2.1c-0.5-1.6,0.4-3.3,2-3.8c5.8-1.8,11.6-3.8,17.2-5.8
				c1.6-0.6,3.3,0.2,3.9,1.8c0.6,1.6-0.2,3.3-1.8,3.9c-5.7,2.1-11.6,4.1-17.5,5.9C883.3,643.6,883,643.6,882.7,643.6z M575.5,639
				c-0.3,0-0.6,0-0.9-0.1c-5.8-1.7-11.7-3.6-17.6-5.5c-1.6-0.5-2.5-2.2-2-3.9c0.5-1.6,2.3-2.5,3.9-2c5.8,1.9,11.6,3.7,17.4,5.4
				c1.6,0.5,2.5,2.2,2.1,3.8C578.1,638.1,576.9,639,575.5,639z M917.1,631.1c-1.2,0-2.3-0.7-2.8-1.9c-0.7-1.6,0.1-3.3,1.6-4
				c5.6-2.3,11.2-4.8,16.6-7.4c1.5-0.7,3.3-0.1,4.1,1.4c0.7,1.5,0.1,3.3-1.4,4.1c-5.5,2.6-11.2,5.2-16.9,7.5
				C917.9,631,917.5,631.1,917.1,631.1z M540.7,627.6c-0.3,0-0.7-0.1-1-0.2c-5.7-2.1-11.5-4.3-17.2-6.5c-1.6-0.6-2.3-2.4-1.7-4
				c0.6-1.6,2.4-2.3,4-1.7c5.6,2.2,11.4,4.4,17.1,6.4c1.6,0.6,2.4,2.3,1.8,3.9C543.1,626.8,542,627.6,540.7,627.6z M950.2,615.3
				c-1.1,0-2.1-0.6-2.7-1.6c-0.8-1.5-0.3-3.3,1.2-4.1l2.3-1.2c4.2-2.3,8.7-4.9,13.5-7.8c1.4-0.9,3.3-0.4,4.2,1.1
				c0.9,1.4,0.4,3.3-1.1,4.2c-4.9,2.9-9.4,5.5-13.7,7.9l-2.3,1.3C951.2,615.2,950.7,615.3,950.2,615.3z M506.6,614.1
				c-0.4,0-0.8-0.1-1.2-0.3c-5.7-2.4-11.3-5-16.8-7.6c-1.5-0.7-2.2-2.5-1.5-4.1c0.7-1.5,2.5-2.2,4.1-1.5c5.4,2.6,11,5.1,16.6,7.5
				c1.5,0.7,2.3,2.5,1.6,4C508.9,613.4,507.8,614.1,506.6,614.1z M473.5,598.5c-0.5,0-0.9-0.1-1.4-0.3c-5.5-2.8-11-5.7-16.3-8.7
				c-1.5-0.8-2-2.7-1.2-4.2c0.8-1.5,2.7-2,4.2-1.2c5.2,2.9,10.6,5.8,16.1,8.6c1.5,0.8,2.1,2.6,1.3,4.1
				C475.6,597.9,474.6,598.5,473.5,598.5z M981.7,596.7c-1,0-2-0.5-2.6-1.4c-0.9-1.4-0.5-3.3,1-4.2c5-3.1,10.2-6.4,15.4-9.8
				c1.4-0.9,3.3-0.5,4.2,0.9c0.9,1.4,0.5,3.3-0.9,4.2c-5.3,3.4-10.5,6.7-15.5,9.9C982.9,596.5,982.3,596.7,981.7,596.7z
				 M441.4,580.6c-0.5,0-1.1-0.1-1.6-0.4c-3.1-1.9-6.2-3.8-9.2-5.7c-2.1-1.4-4.3-2.7-6.4-4.1c-1.4-0.9-1.8-2.8-0.9-4.2
				c0.9-1.4,2.8-1.8,4.2-0.9c2.1,1.4,4.2,2.7,6.3,4.1c3,1.9,6,3.8,9.1,5.7c1.4,0.9,1.9,2.8,1,4.2
				C443.5,580.1,442.5,580.6,441.4,580.6z M1012.6,576.9c-1,0-2-0.5-2.6-1.4c-0.9-1.4-0.5-3.3,0.9-4.2l0.2-0.1
				c5-3.2,10-6.5,15.2-9.8c1.4-0.9,3.3-0.5,4.2,0.9c0.9,1.4,0.5,3.3-0.9,4.2c-5.2,3.3-10.3,6.6-15.2,9.8l-0.2,0.1
				C1013.8,576.7,1013.2,576.9,1012.6,576.9z M410.9,560.4c-0.6,0-1.2-0.2-1.8-0.6c-5-3.6-9.9-7.3-14.8-11c-1.3-1-1.6-3-0.5-4.3
				c1-1.3,3-1.6,4.3-0.5c4.8,3.7,9.7,7.4,14.6,10.9c1.4,1,1.7,2.9,0.7,4.3C412.7,560,411.8,560.4,410.9,560.4z M1043.5,557.1
				c-1,0-2-0.5-2.6-1.4c-0.9-1.4-0.5-3.3,0.9-4.2c5.1-3.2,10.3-6.5,15.6-9.7c1.4-0.9,3.3-0.4,4.2,1c0.9,1.4,0.4,3.3-1,4.2
				c-5.3,3.3-10.4,6.5-15.5,9.7C1044.6,556.9,1044,557.1,1043.5,557.1z M381.9,537.9c-0.7,0-1.4-0.2-2-0.7c-4.7-3.9-9.3-8-13.9-12.1
				c-1.2-1.1-1.3-3.1-0.2-4.3c1.1-1.3,3.1-1.3,4.3-0.2c4.5,4.1,9.1,8.1,13.7,12c1.3,1.1,1.5,3,0.4,4.3
				C383.7,537.6,382.8,537.9,381.9,537.9z M1074.7,537.9c-1,0-2.1-0.5-2.6-1.5c-0.9-1.4-0.4-3.3,1.1-4.2c5.4-3.2,10.7-6.3,15.9-9.3
				c1.5-0.8,3.3-0.3,4.2,1.1c0.8,1.5,0.3,3.3-1.1,4.2c-5.1,2.9-10.4,6-15.8,9.2C1075.8,537.7,1075.2,537.9,1074.7,537.9z
				 M1106.5,519.6c-1.1,0-2.1-0.6-2.7-1.6c-0.8-1.5-0.3-3.3,1.2-4.1c5.4-3,10.9-5.9,16.2-8.7c1.5-0.8,3.3-0.2,4.1,1.3
				c0.8,1.5,0.2,3.3-1.3,4.1c-5.3,2.8-10.7,5.7-16.1,8.6C1107.5,519.5,1107,519.6,1106.5,519.6z M1139,502.7c-1.1,0-2.2-0.6-2.7-1.7
				c-0.7-1.5-0.1-3.3,1.4-4.1c5.6-2.7,11.2-5.4,16.6-7.9c1.5-0.7,3.3,0,4,1.5c0.7,1.5,0,3.3-1.5,4c-5.4,2.5-11,5.1-16.5,7.8
				C1139.9,502.6,1139.5,502.7,1139,502.7z M1172.3,487.4c-1.2,0-2.3-0.7-2.8-1.9c-0.7-1.6,0.1-3.3,1.6-4c5.7-2.4,11.4-4.7,17.1-6.9
				c1.6-0.6,3.3,0.2,4,1.7c0.6,1.6-0.2,3.3-1.7,4c-5.6,2.2-11.3,4.5-16.9,6.9C1173.1,487.4,1172.7,487.4,1172.3,487.4z
				 M1206.5,474.2c-1.3,0-2.4-0.8-2.9-2c-0.6-1.6,0.3-3.3,1.9-3.9c5.8-2.1,11.7-4,17.5-5.8c1.6-0.5,3.3,0.4,3.8,2
				c0.5,1.6-0.4,3.3-2,3.8c-5.7,1.8-11.5,3.7-17.3,5.7C1207.2,474.1,1206.8,474.2,1206.5,474.2z M1241.5,463.3
				c-1.3,0-2.6-0.9-2.9-2.2c-0.4-1.6,0.5-3.3,2.1-3.8c5.8-1.6,11.8-3.1,17.8-4.6c1.6-0.4,3.3,0.6,3.7,2.3c0.4,1.6-0.6,3.3-2.3,3.7
				c-6,1.5-12,3-17.7,4.6C1242,463.2,1241.8,463.3,1241.5,463.3z M1277.1,454.6c-1.4,0-2.7-1-3-2.4c-0.3-1.7,0.7-3.3,2.4-3.6
				c6-1.2,12.1-2.4,18.1-3.4c1.7-0.3,3.2,0.8,3.5,2.5c0.3,1.7-0.8,3.2-2.5,3.5c-6,1-12,2.2-17.9,3.4
				C1277.5,454.6,1277.3,454.6,1277.1,454.6z M1477.6,450.3c-0.2,0-0.3,0-0.5,0c-6-0.9-12.1-1.8-18.1-2.5c-1.7-0.2-2.9-1.7-2.7-3.4
				c0.2-1.7,1.7-2.9,3.4-2.7c6,0.8,12.2,1.6,18.2,2.6c1.7,0.3,2.8,1.8,2.5,3.5C1480.4,449.3,1479.1,450.3,1477.6,450.3z
				 M1313.3,448.5c-1.5,0-2.8-1.1-3-2.6c-0.2-1.7,0.9-3.2,2.6-3.4c6-0.8,12.2-1.6,18.3-2.2c1.7-0.2,3.2,1,3.4,2.7
				c0.2,1.7-1,3.2-2.7,3.4c-6,0.6-12.1,1.4-18.1,2.2C1313.5,448.5,1313.4,448.5,1313.3,448.5z M1441.2,445.8c-0.1,0-0.2,0-0.3,0
				c-6-0.6-12.2-1-18.2-1.4c-1.7-0.1-3-1.5-2.9-3.2c0.1-1.7,1.5-3,3.2-2.9c6.1,0.4,12.3,0.8,18.4,1.4c1.7,0.2,2.9,1.6,2.8,3.3
				C1444.1,444.6,1442.8,445.8,1441.2,445.8z M1349.7,444.7c-1.6,0-2.9-1.2-3-2.8c-0.1-1.7,1.1-3.1,2.8-3.3c6.1-0.4,12.3-0.8,18.4-1
				c1.7-0.1,3.1,1.3,3.2,2.9c0.1,1.7-1.3,3.1-2.9,3.2c-6.1,0.2-12.2,0.6-18.2,1C1349.8,444.7,1349.8,444.7,1349.7,444.7z
				 M1404.7,443.6C1404.6,443.6,1404.6,443.6,1404.7,443.6c-5.4-0.2-10.7-0.2-16-0.2l-2.3,0c0,0,0,0,0,0c-1.7,0-3-1.4-3.1-3
				c0-1.7,1.4-3.1,3-3.1l2.4,0c5.3,0,10.7,0.1,16,0.2c1.7,0,3,1.5,3,3.1C1407.7,442.2,1406.3,443.6,1404.7,443.6z"/>
		</g>
		<g>
			<linearGradient id="XMLID_4_" gradientUnits="userSpaceOnUse" x1="908.1755" y1="964.4225" x2="908.1755" y2="380.7046">
				<stop  offset="0" style="stop-color:#253858;stop-opacity:0"/>
				<stop  offset="0.2605" style="stop-color:#253858"/>
				<stop  offset="0.5923" style="stop-color:#2E405F"/>
				<stop  offset="1" style="stop-color:#344563"/>
			</linearGradient>
			<path id="XMLID_99_" class="st8" d="M573.9,390l52,375l0,0c48.1,44,75.4,106.2,75.4,171.3v28.1H1115v-28.1
				c0-65.2,27.4-127.3,75.4-171.3l0,0l52-375c0.7-4.9-3.1-9.3-8.1-9.3H581.9C577,380.7,573.2,385.1,573.9,390z"/>
			<g>
				<g>
					<path class="st9" d="M1104,568v-13.8l-11.9,6.9C1095,564.7,1099.2,567.3,1104,568z"/>
					<path class="st9" d="M1109.4,531.1v13.8l11.9-6.9C1118.4,534.3,1114.2,531.8,1109.4,531.1z"/>
					<path class="st9" d="M1121.3,561.1l-11.9-6.9V568C1114.2,567.3,1118.4,564.7,1121.3,561.1z"/>
					<path class="st9" d="M1073.5,527.2l13.9,8c3.9-5.2,9.8-8.9,16.6-9.6v-16C1091.3,510.5,1080.2,517.2,1073.5,527.2z"/>
					<path class="st9" d="M1139.9,571.8l-13.9-8c-3.9,5.2-9.8,8.9-16.6,9.6v16C1122.1,588.6,1133.2,581.8,1139.9,571.8z"/>
					<path class="st9" d="M1104,589.4v-16c-6.8-0.8-12.8-4.4-16.6-9.6l-13.9,8C1080.2,581.8,1091.3,588.6,1104,589.4z"/>
					<path class="st9" d="M1124,556.4c0.9-2.1,1.3-4.5,1.3-6.9s-0.5-4.8-1.3-6.9l-11.9,6.9L1124,556.4z"/>
					<path class="st9" d="M1130.8,549.5c0,3.4-0.7,6.7-2,9.6l13.8,8c2.6-5.3,4.1-11.3,4.1-17.6s-1.5-12.3-4.1-17.6l-13.8,8
						C1130.1,542.9,1130.8,546.1,1130.8,549.5z"/>
					<path class="st9" d="M1092.1,537.9l11.9,6.9v-13.8C1099.2,531.8,1095,534.3,1092.1,537.9z"/>
					<path class="st9" d="M1082.6,549.5c0-3.4,0.7-6.7,2-9.6l-13.8-8c-2.6,5.3-4.1,11.3-4.1,17.6s1.5,12.3,4.1,17.6l13.8-8
						C1083.3,556.2,1082.6,552.9,1082.6,549.5z"/>
					<path class="st9" d="M1109.4,509.6v16c6.8,0.8,12.8,4.4,16.6,9.6l13.9-8C1133.2,517.2,1122.1,510.5,1109.4,509.6z"/>
					<path class="st9" d="M1089.4,542.6c-0.9,2.1-1.3,4.5-1.3,6.9s0.5,4.8,1.3,6.9l11.9-6.9L1089.4,542.6z"/>
					<path class="st9" d="M1109.4,482.7c22.6,0.9,42.3,13.1,53.8,31.1l13.8-8c-14.2-22.7-39.1-38.1-67.6-39V482.7z"/>
					<path class="st9" d="M1163.2,585.2c-11.4,18-31.2,30.1-53.8,31.1v16c28.5-0.9,53.4-16.3,67.6-39L1163.2,585.2z"/>
					<path class="st9" d="M1189.5,549.5c0-14.1-3.6-27.4-9.8-39l-13.8,8c4.9,9.3,7.7,19.8,7.7,31s-2.8,21.8-7.7,31l13.8,8
						C1186,576.9,1189.5,563.6,1189.5,549.5z"/>
					<path class="st9" d="M1047.5,580.6c-4.9-9.3-7.7-19.8-7.7-31s2.8-21.8,7.7-31l-13.8-8c-6.2,11.6-9.8,24.9-9.8,39
						c0,14.1,3.6,27.4,9.8,39L1047.5,580.6z"/>
					<path class="st9" d="M1104,616.3c-22.6-0.9-42.3-13.1-53.8-31.1l-13.8,8c14.2,22.7,39.1,38.1,67.6,39V616.3z"/>
					<path class="st9" d="M1109.4,488.2v16c14.7,0.9,27.5,8.8,35.2,20.4l13.8-8C1148,500.1,1130,489.1,1109.4,488.2z"/>
					<path class="st9" d="M1050.2,513.8c11.4-18,31.1-30.1,53.8-31.1v-16c-28.5,0.9-53.4,16.3-67.6,39L1050.2,513.8z"/>
					<path class="st9" d="M1158.5,582.5l-13.8-8c-7.7,11.6-20.5,19.5-35.2,20.4v16C1130,610,1148,598.9,1158.5,582.5z"/>
					<path class="st9" d="M1104,610.9v-16c-14.7-0.9-27.5-8.8-35.2-20.4l-13.8,8C1065.4,598.9,1083.4,610,1104,610.9z"/>
					<path class="st9" d="M1052.2,577.8l13.8-8c-3.1-6.1-4.8-13-4.8-20.3s1.7-14.2,4.8-20.3l-13.8-8c-4.4,8.5-6.9,18.1-6.9,28.3
						S1047.8,569.4,1052.2,577.8z"/>
					<path class="st9" d="M1161.2,521.2l-13.8,8c3.1,6.1,4.8,13,4.8,20.3s-1.7,14.2-4.8,20.3l13.8,8c4.4-8.5,6.9-18.1,6.9-28.3
						S1165.6,529.7,1161.2,521.2z"/>
					<path class="st9" d="M1054.9,516.5l13.8,8c7.7-11.6,20.5-19.5,35.2-20.4v-16C1083.4,489.1,1065.4,500.1,1054.9,516.5z"/>
					<path class="st10" d="M1106.7,461.3c-48.6,0-88.2,39.6-88.2,88.2s39.6,88.2,88.2,88.2s88.2-39.6,88.2-88.2
						S1155.3,461.3,1106.7,461.3z M1146.8,549.5c0,6.3-1.5,12.3-4.1,17.6l-13.8-8c1.3-2.9,2-6.2,2-9.6s-0.7-6.7-2-9.6l13.8-8
						C1145.2,537.2,1146.8,543.2,1146.8,549.5z M1066.6,549.5c0-6.3,1.5-12.3,4.1-17.6l13.8,8c-1.3,2.9-2,6.2-2,9.6s0.7,6.7,2,9.6
						l-13.8,8C1068.2,561.8,1066.6,555.8,1066.6,549.5z M1125.4,549.5c0,2.4-0.5,4.8-1.3,6.9l-11.9-6.9l11.9-6.9
						C1124.9,544.8,1125.4,547.1,1125.4,549.5z M1088,549.5c0-2.4,0.5-4.8,1.3-6.9l11.9,6.9l-11.9,6.9
						C1088.5,554.3,1088,552,1088,549.5z M1092.1,537.9c2.9-3.6,7.1-6.2,11.9-6.9v13.8L1092.1,537.9z M1104,554.2V568
						c-4.8-0.7-9-3.2-11.9-6.9L1104,554.2z M1109.4,554.2l11.9,6.9c-2.9,3.6-7.1,6.2-11.9,6.9V554.2z M1109.4,544.8v-13.8
						c4.8,0.7,9,3.2,11.9,6.9L1109.4,544.8z M1104,525.6c-6.8,0.8-12.8,4.4-16.6,9.6l-13.9-8c6.7-10,17.8-16.7,30.5-17.6V525.6z
						 M1087.4,563.8c3.9,5.2,9.8,8.9,16.6,9.6v16c-12.7-0.9-23.8-7.6-30.5-17.6L1087.4,563.8z M1109.4,573.4
						c6.8-0.8,12.8-4.4,16.6-9.6l13.9,8c-6.7,10-17.8,16.7-30.5,17.6V573.4z M1126,535.2c-3.9-5.2-9.8-8.9-16.6-9.6v-16
						c12.7,0.9,23.8,7.6,30.5,17.6L1126,535.2z M1109.4,504.1v-16c20.6,0.9,38.6,12,49.1,28.3l-13.8,8
						C1137,512.9,1124.1,505,1109.4,504.1z M1104,504.1c-14.7,0.9-27.5,8.8-35.2,20.4l-13.8-8c10.5-16.4,28.5-27.5,49.1-28.4V504.1z
						 M1066.1,529.2c-3.1,6.1-4.8,13-4.8,20.3s1.7,14.2,4.8,20.3l-13.8,8c-4.4-8.5-6.9-18.1-6.9-28.3s2.5-19.8,6.9-28.3
						L1066.1,529.2z M1068.8,574.5c7.7,11.6,20.5,19.5,35.2,20.4v16c-20.6-0.9-38.6-12-49.1-28.4L1068.8,574.5z M1109.4,594.9
						c14.7-0.9,27.5-8.8,35.2-20.4l13.8,8c-10.5,16.4-28.5,27.5-49.1,28.3V594.9z M1147.3,569.9c3.1-6.1,4.8-13,4.8-20.3
						s-1.7-14.2-4.8-20.3l13.8-8c4.4,8.5,6.9,18.1,6.9,28.3s-2.5,19.8-6.9,28.3L1147.3,569.9z M1173.5,549.5c0-11.2-2.8-21.8-7.7-31
						l13.8-8c6.2,11.6,9.8,24.9,9.8,39s-3.6,27.4-9.8,39l-13.8-8C1170.8,571.3,1173.5,560.7,1173.5,549.5z M1177,505.8l-13.8,8
						c-11.4-18-31.2-30.1-53.8-31.1v-16C1137.9,467.7,1162.8,483.1,1177,505.8z M1104,466.8v16c-22.6,0.9-42.3,13.1-53.8,31.1
						l-13.8-8C1050.6,483.1,1075.5,467.7,1104,466.8z M1033.7,510.5l13.8,8c-4.9,9.3-7.7,19.8-7.7,31s2.8,21.8,7.7,31l-13.8,8
						c-6.2-11.6-9.8-24.9-9.8-39C1023.9,535.4,1027.4,522.1,1033.7,510.5z M1036.4,593.2l13.8-8c11.4,18,31.1,30.1,53.8,31.1v16
						C1075.5,631.3,1050.6,616,1036.4,593.2z M1109.4,632.3v-16c22.6-0.9,42.3-13.1,53.8-31.1l13.8,8
						C1162.8,616,1137.9,631.3,1109.4,632.3z"/>
				</g>
				<path class="st11" d="M1106.7,549.5l17.7,86.4c19.9-4.1,37.8-14.9,50.6-30.7c12.8-15.7,19.9-35.4,19.9-55.8H1106.7z"/>
				<g>
					<circle class="st12" cx="1162.3" cy="580.6" r="4.5"/>
				</g>
				<g>
					<circle class="st13" cx="1076.9" cy="493.2" r="4.5"/>
				</g>
				<g>
					<circle class="st12" cx="1124.2" cy="589.1" r="4.5"/>
				</g>
				<g>
					<circle class="st13" cx="1051.3" cy="580.6" r="4.5"/>
				</g>
			</g>
			<path class="st10" d="M776.2,481.5l-0.5,3.1l0,3.1h34.9l0.1,32.3h-34.4l-0.5,3.1l0,3.1h34.9l0.1,32.3h-34.4l-0.5,3.1l0,3.1h34.9
				l0.1,36.4l3.3,0l2.9-0.5l-0.1-35.9h30.8l0.1,36.4l3.3,0l2.9-0.5l-0.1-35.9h30.8l0.1,36.4l3.3,0l2.9-0.5l-0.1-35.9h30.8l0.1,36.4
				h1l2.3,0l2.9-0.5l-0.1-35.9h34.4l0.5-3.1l0-3.1H928l-0.1-32.3h34.4l0.5-3.1l0-3.1h-34.9l-0.1-32.3h34.4l0.5-3.1l0-3.1h-34.9
				l-0.1-34.6h-6.2l0.1,34.6h-30.8l-0.1-34.6h-6.2l0.1,34.6h-30.8l-0.1-34.6h-6.2l0.1,34.6h-30.8l-0.1-34.6h-6.2l0.1,34.6H776.2z
				 M921.8,558.4H891l-0.1-32.3h30.8L921.8,558.4z M921.6,487.6l0.1,32.3h-30.8l-0.1-32.3H921.6z M884.8,558.4H854l-0.1-32.3h30.8
				L884.8,558.4z M884.6,487.6l0.1,32.3h-30.8l-0.1-32.3H884.6z M847.8,558.4H817l-0.1-32.3h30.8L847.8,558.4z M847.6,487.6
				l0.1,32.3h-30.8l-0.1-32.3H847.6z"/>
			<path class="st14" d="M868.5,511.1c3.3,0,6.1-2.7,6.1-6.1c0-3.3-2.7-6.1-6.1-6.1c-3.3,0-6.1,2.7-6.1,6.1
				C862.4,508.4,865.2,511.1,868.5,511.1z"/>
			<polygon class="st15" points="1033.4,698.6 1013.6,645.4 985.6,645.4 1005.4,698.6 			"/>
			<path class="st15" d="M806.2,652.9c0.1,1.4-0.1,2.4-0.5,4.2c-0.8,3.4-2.1,5.6-6.3,11.9c-1.9,2.8-3.5,5.2-4.8,7
				c-0.1,0-0.6,0-1.1-0.1c-0.1,0.3-0.3,0.7-0.4,1c-0.3,0.6-0.7,1.1-1.1,1.5c0.4,4.1,1,12.6,1.5,20.3H811l19.8-53.2h-28l-0.2,0.5
				C804.6,648,806,650.2,806.2,652.9z"/>
			<path class="st16" d="M865.9,698.6c0.7-7.2,1.4-14.2,2.3-20.9c0,0,0,0,0,0c0-0.9,0-2,0.2-3.4c0.1-1.7,0.3-2.4,0.3-3.6
				c0.1-2.2-0.3-3.8-0.5-4.5c-1.8-7.5,2.1-10.2,0.4-18.3c-0.1-0.6-0.3-1.2-0.4-1.8c-3.3,2-6.3,3.1-8.4,3.8
				c-4.9,1.4-9.2,1.5-12.4,1.6c-1.6,0-2.9,0-3.9-0.1c-1.4-0.1-2.3-1-2.7-1.4c-1.2-1.1-1.7-2.7-1.8-4.5h-8.2L811,698.6H865.9z"/>
			<path class="st16" d="M925.3,673.4c0,10.3-8.4,18.7-18.7,18.7c-2.6,0-5.1-0.6-7.4-1.5c0,0,0,0,0,0c0.3,3.1,0.3,5.8,0,8.1h106.2
				l-19.8-53.2h-21.2h-28h-30.7c1,3.4,1.4,5.9,2.4,9.3C917.7,655.5,925.3,663.6,925.3,673.4z M936.1,679.5L936.1,679.5v-12.1v0
				v-12.1h12.1h12.1h12.1v12.1v0v12.1v0v12.1h-12.1h-12.1h-12.1V679.5z"/>
			<path class="st10" d="M905.4,678.2c-1.4,2.1-3.6,5.2-6.8,9.1c0.2,1,0.4,2.1,0.5,3.3c2.3,1,4.8,1.5,7.4,1.5
				c10.3,0,18.7-8.4,18.7-18.7c0-9.8-7.6-17.8-17.2-18.6c0.1,0.4,0.2,0.8,0.4,1.2c1,3,2.2,5.7,1.4,9.2c-0.2,0.9-0.5,1.7-0.7,2.2
				c0,0,0,0,0,0c-0.1,2.2-0.9,4.7-1.4,6C907,675.8,905.9,677.4,905.4,678.2z"/>
			<path class="st10" d="M897.9,671.9c-0.2-0.1-0.5-0.3-0.7-0.5c0,0.2-0.1,0.3-0.1,0.5c-0.1,0.8-0.2,1.6-0.3,2.3
				C897.1,673.6,897.5,672.8,897.9,671.9C897.9,671.9,897.9,671.9,897.9,671.9z"/>
			<path class="st17" d="M683.4,622.3c-0.2-9.7-6.3-18.5-15.8-20.9c-0.3-0.1-0.5-0.1-0.8-0.2c-6-1.3-10.2-6.4-10.7-12.5
				c0-0.6-0.1-1.3-0.2-1.9c-2.7-24.2-22.7-43.2-47-44.7c-4.8-0.3-9.5,0.1-13.9,1.1L609,643h95.6C693,643,683.7,633.8,683.4,622.3z"
				/>
			
				<linearGradient id="SVGID_6_" gradientUnits="userSpaceOnUse" x1="-6632.4624" y1="-347.6922" x2="-6632.4624" y2="-437.4806" gradientTransform="matrix(0.9942 -0.1073 0.1073 0.9942 7407.0669 393.3995)">
				<stop  offset="0.3743" style="stop-color:#FF8B00"/>
				<stop  offset="0.8809" style="stop-color:#FF991F"/>
			</linearGradient>
			<path class="st18" d="M767.7,674c-2.6-0.3-4.7-0.8-6.5-1.4c0,2.5-0.1,5.9,0,10.1c0.1,5.9,0.5,11,1,15.9h13.8
				c-1.2-3.8-2.5-7.7-3.8-11.6C770.7,682.7,769.2,678.3,767.7,674z"/>
			<path class="st19" d="M790.3,679.9c-0.3,0.4-0.6,0.8-0.9,1.3c-0.3,0.3-0.5,0.6-0.8,1l-1.1,0.7c-0.2,0.1-0.5,0.2-0.8,0.2
				c-0.2,0-1,0.1-1.6-0.4c-1-0.7-1-1.9-1-2c-0.1,0-0.5-0.2-0.6-0.7c-0.1-0.4,0.1-0.7,0.1-0.8l1.7-3.8c0.6-0.5,1.3-1,2.1-1.4
				c1-0.6,1.9-1,2.7-1.2c-0.1-0.5-0.1-0.9-0.1-1c0-0.1,0.1-0.2,0.1-0.3c-0.3-0.7-0.7-1.4-1.2-2.1c-2.9,1.8-9.2,5.1-17.6,5.1
				c-1.2,0-2.4-0.1-3.5-0.2c1.5,4.3,3,8.6,4.5,13c1.3,3.9,2.6,7.7,3.8,11.6h17.5c-0.5-7.7-1-16.2-1.5-20.3
				C791.4,679.1,790.8,679.6,790.3,679.9z"/>
			<linearGradient id="SVGID_7_" gradientUnits="userSpaceOnUse" x1="875.5201" y1="628.1118" x2="891.5383" y2="628.1118">
				<stop  offset="0" style="stop-color:#72594B"/>
				<stop  offset="0.5558" style="stop-color:#8C715D"/>
			</linearGradient>
			<path class="st20" d="M887.7,622.7c-1.3,0.6-1.2,1.8-2.2,2.6c-0.8,0.7-1.6,0.6-4.7,0.3c-1.2-0.1-2.1-0.2-2.9-0.2
				c0,0.6,0,1.1,0,1.5c0,1.8-0.2,2.5-0.7,2.9c-0.2,0.2-0.5,0.3-0.8,0.4l2,2.4c1.5,1.9,4.2,2.3,6.2,1l5.7-3.5c0.1,0,0.1,0.1,0.2,0.1
				c-0.1-1.2-0.2-2.4-0.2-3.7c0.1-1.8,0.3-3.4,0.6-4.9c-0.5,0.3-1,0.5-1,0.5C888.6,622.7,888.4,622.4,887.7,622.7z"/>
			<path class="st21" d="M850.1,608.1l-0.3,2.2L850.1,608.1l0.7,0.1l0.1-0.7c0.1-0.3,0.1-0.7-0.2-0.9c-0.2-0.2-0.6-0.3-0.9-0.2
				c-0.1-0.4-0.3-0.8-0.7-0.9c-0.5-0.2-1.1-0.1-1.4,0.4c-0.1-0.2-0.4-0.4-0.7-0.5c-0.5-0.1-1.1,0.5-1.3,1.3l3.9,0.5
				C849.9,607.3,850.2,607.7,850.1,608.1z"/>
			<path class="st21" d="M843.5,651.3c-0.9-3.3-1.5-8,1-11.1c1.4-1.8,3.4-2.4,6.4-3.2c-0.1-0.9-0.2-1.8-0.3-3
				c-0.6-6.4-1.5-8.4-1.5-13.1c0-1.4,0.1-2.6,0.2-3.6c0.8-0.8,1.4-1.8,1.8-2.9l0.5-1.5l1.3-3.5h0c-1-0.4-2.2,0-2.7,1l-0.6,1.2l0,0
				l-0.4,0.7l-1.5,1l-6.2-0.8c-0.1,0.7-0.2,1.6-0.1,2.6c0.1,0.9,0.4,1.6,0.6,2.1c0,0.7,0,1.4,0.1,2c-1,7-1.8,12.2-2.3,15.3
				c-0.7,4.6-1.3,8.2-1,10.9c0.2,1.9,0.7,3.4,1.8,4.5C841.1,650.3,842.1,651.3,843.5,651.3z"/>
			<path class="st22" d="M867.1,640.5c-0.4-3.4,0.1-4.5,0.1-5.3c0.1-2,1.3-3.8,3-4.5c0,0,0,0-0.1,0c-5.6,2.7-10.4,4.2-13.8,5.2
				c-2.1,0.6-3.9,1-5.5,1.3c-3,0.7-5,1.3-6.4,3.2c-2.5,3.1-1.8,7.7-1,11.1c0.9,0,2.3,0.1,3.9,0.1c3.2-0.1,7.5-0.1,12.4-1.6
				c2.1-0.6,5.1-1.8,8.4-3.8C867.8,644.6,867.3,643,867.1,640.5z"/>
			<path class="st23" d="M899.2,690.6C899.1,690.6,899.1,690.5,899.2,690.6c-0.1-1.2-0.3-2.3-0.5-3.3c-0.6,0.8-1.3,1.6-2,2.4l0,0
				l-0.7,2.9l-6.6,2l-0.8,1.8c-0.4,0.9-1.4,1.3-2.3,1l1.4-4.7c0.3-1.1,0.9-2.1,1.6-3l0.8-1c0.5-0.6,1.1-0.9,1.8-0.9
				c0.1-0.2,0.2-0.4,0.3-0.7c1.2-2.6,1.8-4.6,2.4-6.5c-4,0.9-9.7,1.6-16.4,0.6c-4-0.6-7.4-1.7-10-2.8c0-0.2,0-0.4,0-0.5c0,0,0,0,0,0
				c-0.9,6.8-1.6,13.8-2.3,20.9h33.3C899.4,696.3,899.5,693.6,899.2,690.6z"/>
			<path class="st24" d="M884.6,633.7c-2,1.3-4.7,0.8-6.2-1l-2-2.4l0,0c-1.1,0-2.5,0-4.1-0.1c-0.8,0-1.5,0.1-2.2,0.4
				c-1.7,0.8-2.9,2.5-3,4.5c-0.1,0.8-0.5,2-0.1,5.3c0.3,2.5,0.7,4.1,1.1,5.6c0.2,0.6,0.3,1.2,0.4,1.8c1.8,8.1-2.1,10.8-0.4,18.3
				c0.2,0.7,0.6,2.3,0.5,4.5c0,1.2-0.2,1.8-0.3,3.6c-0.1,1.4-0.1,2.5-0.2,3.4c0,0.2,0,0.4,0,0.5c2.6,1.1,6,2.2,10,2.8
				c6.6,1,12.3,0.3,16.4-0.6c0.5-1.5,1-3.1,1.8-5c0.2-0.4,0.3-0.8,0.5-1.2c0.1-0.7,0.2-1.5,0.3-2.3c0-0.2,0.1-0.4,0.1-0.5
				c0.3,0.2,0.5,0.4,0.7,0.5c0,0,0,0,0,0c0.7-0.9,2.4-2.6,5-3.7c2.7-1.1,5.1-1,6.2-0.9c0,0,0,0,0,0c0.2-0.5,0.5-1.3,0.7-2.2
				c0.7-3.5-0.4-6.2-1.4-9.2c-0.1-0.4-0.3-0.8-0.4-1.2c-1-3.4-1.4-5.9-2.4-9.3c-0.4-1.3-0.8-2.7-1.5-4.4c-0.4-1.1-1.2-3.1-3.1-4.1
				c-0.4-0.2-0.8-0.4-1.2-0.5c-0.4-0.5-0.9-0.9-1.5-1.2c-2.7-1.6-5.3-3.3-8-4.9c-0.1,0-0.1-0.1-0.2-0.1L884.6,633.7z"/>
			<path class="st12" d="M849.3,612.3l0.4-0.7l0,0l0.6-1.2c0.5-0.9,1.6-1.4,2.7-1h0l-1.3,3.5l10.6,1.4c0.4,0.1,0.8-0.2,0.9-0.6
				l0-0.1l8.6,1.2c0,0,0-0.1,0.1-0.1c0.4-0.6,0.9-1.5,1.5-2.6l-9.7-1.3l0-0.1c0.1-0.4-0.2-0.8-0.6-0.9l-12-1.6l-0.7-0.1l-0.3,2.1
				l0.3-2.2c0.1-0.4-0.2-0.8-0.6-0.8l-3.9-0.5l-10.5-1.4l0,0.1c0.1-0.4-0.2-0.8-0.6-0.8l-0.3,0c-0.4-0.1-0.8,0.2-0.8,0.6l-0.8,6
				c-0.1,0.4,0.2,0.8,0.6,0.8l0.3,0c0.4,0.1,0.8-0.2,0.8-0.6l0.7-5.4l-0.8,5.5l7.5,1l6.2,0.8L849.3,612.3z"/>
			<path class="st25" d="M894.2,609.4c0.3,0.8,0.4,1.7,0.5,2.4C894.6,611,894.5,610.2,894.2,609.4z"/>
			<path class="st25" d="M894.7,614c-0.1,0.7-0.3,1.5-0.6,2.2C894.3,615.5,894.6,614.7,894.7,614z"/>
			<path class="st25" d="M871.7,614.9c-0.5,0.7-0.8,1.1-0.7,1.5c0.2,0.5,1.4,0.5,1.9,0.4c0,0.8,0.1,1.9,0.1,3.2
				c0.2,2.6,0.3,4,0.6,4.5c0.4,0.6,1,0.7,4.3,0.9c0.8,0.1,1.7,0.1,2.9,0.2c3,0.2,3.9,0.3,4.7-0.3c1-0.9,0.9-2.1,2.2-2.6
				c0.7-0.3,0.9,0,2.2-0.4c0,0,0.5-0.2,1-0.5c0.3-0.2,0.7-0.5,0.9-0.8c-0.3,0.1-2.3,1.2-3.4,0.4c-1.4-1.1,0.1-4.6-1.1-5.2
				c-0.5-0.3-1.3,0.2-1.9,0.7c-0.6-0.1-1.2-0.3-1.8-0.4c0.1-0.9,0.3-2.3,0.1-4c-0.2-2.3-0.4-4.1-1.5-4.8c-0.9-0.5-1.5,0.1-5.6,1
				c-1.3,0.3-2.1,0.4-2.6,0.4c0.2-0.5,0.4-0.9,0.7-1.4c-1,1.7-1.2,3.5-1.2,3.5c0,0.2-0.1,0.4-0.1,0.7c-0.1,0.1-0.1,0.2-0.2,0.3
				C872.7,613.3,872.1,614.2,871.7,614.9C871.7,614.8,871.7,614.9,871.7,614.9z"/>
			<path class="st26" d="M876.6,608.8c4.1-0.8,4.7-1.5,5.6-1c1.2,0.7,1.3,2.5,1.5,4.8c0.2,1.7,0,3-0.1,4c0.6,0.1,1.2,0.3,1.8,0.4
				c0.7-0.5,1.4-0.9,1.9-0.7c1.1,0.6-0.3,4.1,1.1,5.2c1.1,0.8,3.1-0.2,3.4-0.4c0,0,0-0.1,0.1-0.1c0-0.1,0.1-0.2,0.2-0.3c0,0,0,0,0,0
				c0,0,0,0,0,0c0,0,0-0.1,0.1-0.2c0.1-0.2,0.4-0.6,0.6-1.2c0.4-0.8,0.9-1.9,1.3-3c0.3-0.7,0.5-1.5,0.6-2.2c0-0.3,0.1-0.7,0.1-1
				c0-0.4,0-0.7,0-1.1c-0.1-0.8-0.2-1.6-0.5-2.4c-0.1-0.4-0.3-0.8-0.5-1.2c-0.2-0.4-0.4-0.8-0.7-1.2c-0.5-0.8-1.1-1.5-1.9-2.2
				c-0.9-0.8-1.9-1.4-3-1.7c-3.2-1.2-6.7-0.6-9.1,0.6c0,0-0.1,0-0.2,0.1c-0.2,0.1-0.5,0.3-0.9,0.6c-0.6,0.4-1.3,1-2,1.7
				c-0.5,0.5-0.9,1.1-1.3,1.7c-0.3,0.5-0.5,1-0.7,1.4C874.5,609.1,875.3,609,876.6,608.8z"/>
			<path class="st21" d="M892.2,687c-0.1,0.2-0.2,0.5-0.3,0.7c-0.7,0-1.4,0.3-1.8,0.9l-0.8,1c-0.7,0.9-1.3,1.9-1.6,3l-1.4,4.7
				c0.9,0.3,1.9-0.1,2.3-1l0.8-1.8l6.6-2l0.7-2.9l0,0c0.7-0.8,1.4-1.7,2-2.4c3.2-3.9,5.4-7,6.8-9.1c0.5-0.7,1.6-2.4,2.4-4.8
				c0.4-1.3,1.3-3.7,1.4-6c-1.1-0.1-3.5-0.2-6.2,0.9c-2.7,1.1-4.3,2.8-5,3.7c-0.4,0.9-0.8,1.7-1.1,2.4c-0.2,0.5-0.4,0.9-0.5,1.2
				c-0.8,1.9-1.3,3.5-1.8,5C893.9,682.5,893.3,684.4,892.2,687z"/>
			<path class="st27" d="M710.5,599.8c-1-0.9-3.3-2.7-6.4-3.6c-0.4-0.1-2.2-0.6-2.4-0.3c-0.1,0.1,0.1,0.3,0.2,0.4
				c0.4,0.6,1.1,0.9,1.5,1c0.5,0.2,1.3,0.5,2.2,1c-0.5,0-0.9,0.2-1.1,0.6c-0.2,0.4-0.1,0.9,0.2,1.2c-0.3,0.2-0.7,0.5-0.7,1
				c-0.2,0.9,0.9,1.6,1.7,2.4c0.7,0.7,1.6,1.2,2.6,1.5l2.4,0.6c0.4-1.5,0.8-3.1,1.2-4.6C711.5,600.7,711,600.2,710.5,599.8z"/>
			<path class="st10" d="M767.1,629.9c0.2,0,0.4,0.1,0.6,0.1c0.3-0.1,0.6-0.2,1-0.4c0.6-0.4,0.8-1.1,1-1.8c0.2-0.6,0.3-1.2,0.5-2
				c-0.4-0.1-0.8-0.3-1.2-0.5c-0.2-0.1-0.5-0.3-0.9-0.4c-0.4,1-0.9,2-1.4,3c-0.3,0.5-0.5,1-0.8,1.4
				C766.4,629.5,766.8,629.7,767.1,629.9C767.1,629.9,767.1,629.9,767.1,629.9z"/>
			<path class="st10" d="M759.7,652.5c-0.9-1.9-1.5-3.2-1.5-4.9c0-0.9,0.4-2,1-4c0.5-1.5,1-2.7,1.3-3.6c-0.6-0.3-1.3-0.6-1.9-0.9
				c-3.1,3.2-6.3,5.5-8.9,7.2c0.9,2.2,2.3,4.5,4.4,6.5c2.3,2.2,4.9,3.6,7.6,4.5c0-0.4,0.1-0.8,0.1-1.2
				C761.2,655.2,760.4,654,759.7,652.5z"/>
			<polygon class="st27" points="783.8,632.9 783.8,632.9 783.8,632.9 783.8,632.9 783.8,632.9 			"/>
			<path class="st27" d="M785.2,675.2l-1.7,3.8c0,0.1-0.2,0.4-0.1,0.8c0.1,0.5,0.6,0.7,0.6,0.7c0,0.1,0,1.4,1,2
				c0.7,0.4,1.4,0.4,1.6,0.4c0.4,0,0.6-0.1,0.8-0.2l1.1-0.7c0.3-0.3,0.5-0.6,0.8-1c0.3-0.4,0.6-0.8,0.9-1.3c0.4-0.3,1-0.8,1.7-1.5
				c0.4-0.4,0.7-0.9,1.1-1.5c0.2-0.4,0.3-0.7,0.4-1c-0.6-0.1-1.4-0.4-2.1-1c-0.8-0.7-1.2-1.6-1.4-2.3c-0.8,0.3-1.7,0.7-2.7,1.2
				C786.5,674.2,785.8,674.7,785.2,675.2z"/>
			<path class="st28" d="M711.9,600.9c0,0.1,0,0.1,0,0.2c-0.4,1.5-0.8,3.1-1.2,4.6c0,0,0,0,0,0c4.4,4.4,9.6,9,15.4,13.6
				c2,1.6,4,3,6,4.4l-0.7-10C724.9,609.4,718.4,605.2,711.9,600.9z"/>
			<path class="st28" d="M760.6,640c-0.3,0.9-0.8,2.1-1.3,3.6c-0.7,2.1-1,3.1-1,4c0,1.7,0.6,3,1.5,4.9c0.7,1.5,1.5,2.7,2.1,3.6
				c0,0.4-0.1,0.8-0.1,1.2c-0.4,5-0.9,10.1-1.3,15.1c0.2,0.1,0.5,0.2,0.8,0.2c1.8,0.6,3.9,1.1,6.5,1.4c1.1,0.1,2.3,0.2,3.5,0.2
				c8.4,0,14.7-3.3,17.6-5.1c-0.7-1.2-1.5-2.4-2.2-3.6c-1-1.7-2-3.4-2.9-5.1c0.9-2.2,1.8-4.8,2.4-7.8c0.5-2.2,0.7-4.2,0.8-6
				c1.8,1,3.9,2.4,6.1,4.2c2.2,1.8,3.9,3.6,5.2,5.2c-1.7,2.8-3.4,5.8-5,8.9c-1.1,2.2-2.2,4.3-3.2,6.4c0,0.1-0.1,0.2-0.1,0.3
				c0,0.1,0,0.5,0.1,1c0.2,0.7,0.5,1.6,1.4,2.3c0.7,0.6,1.5,0.9,2.1,1c0.5,0.1,0.9,0.1,1.1,0.1c1.2-1.8,2.9-4.2,4.8-7
				c4.2-6.3,5.5-8.5,6.3-11.9c0.4-1.8,0.6-2.8,0.5-4.2c-0.2-2.6-1.5-4.8-3.6-7c-2.6-2.7-6.5-5.3-11-8.4c-1.7-1.2-3.3-2.2-4.9-3.1
				c-1-0.5-1.9-1.1-2.8-1.5c0,0,0,0,0,0l0,0c-3.1,1.9-5.8,2.8-7.7,3.3c-2.5,0.6-4,1-5.5,0.3c-3.1-1.4-3.4-5.9-3.5-6.5c0,0,0,0,0,0
				c-0.3-0.2-0.7-0.4-1.2-0.6c-1.2-0.6-2.7-1.3-4.5-2.1c-4.2-1.7-7.2-2.3-9.5-2.9c-3.2-0.8-7.7-2.4-13.1-5.6
				c-0.4-0.2-0.7-0.5-1.1-0.7l0.8,10c7.1,4.6,13.9,8.2,20.1,11C759.3,639.4,760,639.7,760.6,640z"/>
			<path class="st27" d="M770.2,625.8c-0.2,0.8-0.3,1.5-0.5,2c-0.2,0.8-0.4,1.4-1,1.8c-0.3,0.2-0.6,0.3-1,0.4
				c-0.2,0-0.4-0.1-0.6-0.1c0,0.6,0.4,5.1,3.5,6.5c1.5,0.7,3,0.3,5.5-0.3c1.9-0.5,4.6-1.4,7.7-3.3c-1.3,0.2-5.1,0.5-8.2-1.8
				c-4.2-3.1-5.5-9.9-2.6-16.2c-1.6-1.8-2.4-3.8-2.2-5.6c-0.3,0.4-0.6,0.7-0.9,1.2c-0.7,1-1.2,1.9-1.6,2.7c0,0.4-0.1,0.9-0.5,1.5
				c-0.7,1.2-1.9,1.6-1.8,2.2c0,0.1,0.2,0.3,0.5,0.6c0.3,0.3,0.6,0.5,0.8,0.6c-0.4,0.8-0.5,1.4-0.6,1.8c0,0.6,0.1,0.7,0.1,1.4
				c0,1-0.3,1.3-0.3,1.7c0,0.7,0.8,1.3,1.5,1.7c0.3,0.2,0.7,0.3,0.9,0.4C769.4,625.5,769.8,625.6,770.2,625.8z"/>
			<path class="st10" d="M773.1,614.9c-3,6.3-1.6,13,2.6,16.2c3.1,2.4,7,2,8.2,1.8l0,0h0l0,0h0v0c0.9,0.4,1.9,1,2.8,1.5
				c-0.3-0.7-0.5-1.5-0.9-2.2c-0.8-1.5-1.7-2.8-2.9-3.9c0-0.7,0.1-1.5,0.3-2.2c0.9-3.2,2.8-4,4.6-7.3c1.3-2.5,1.3-6,0.1-8.4
				c-2.5-5.1-9.3-6-13.2-4.7c-0.9,0.3-2.7,0.9-3.5,2.6c-0.2,0.4-0.3,0.8-0.3,1.2C770.6,611.1,771.4,613.1,773.1,614.9z"/>
			<path class="st29" d="M701.3,930.1h165.4h114.1h134.3c0.8-28.6,6.8-56.6,17.6-82.5h-449C694.4,873.5,700.5,901.5,701.3,930.1z"/>
			<path class="st1" d="M683.7,847.6h449c12.9-31.1,32.4-59.3,57.8-82.5H625.9C651.3,788.2,670.8,816.5,683.7,847.6z"/>
			<g class="st5">
				<path class="st14" d="M645.3,565.5c-0.5,0-1-0.1-1.5-0.4c-1.5-0.8-2-2.7-1.2-4.1c3.2-5.8,6.5-11.1,10-15.8
					c1-1.4,2.9-1.6,4.3-0.6c1.4,1,1.6,2.9,0.6,4.3c-3.3,4.5-6.5,9.5-9.6,15.1C647.5,565,646.4,565.5,645.3,565.5z M788.2,546.7
					c-0.1,0-0.2,0-0.2,0c-6-0.5-12.1-1.6-18.6-3.4c-1.6-0.5-2.6-2.1-2.1-3.8c0.5-1.6,2.2-2.6,3.8-2.1c6.1,1.7,11.8,2.8,17.4,3.2
					c1.7,0.1,2.9,1.6,2.8,3.3C791.1,545.5,789.8,546.7,788.2,546.7z M806.4,546c-1.5,0-2.8-1.1-3-2.6c-0.3-1.7,0.9-3.2,2.5-3.5
					c5.7-0.9,11.4-2.5,17-4.7c1.6-0.6,3.3,0.1,4,1.7c0.6,1.6-0.1,3.3-1.7,4c-6,2.4-12.1,4.1-18.3,5C806.8,546,806.6,546,806.4,546z
					 M752.9,537.3c-0.4,0-0.8-0.1-1.2-0.2c-2.9-1.2-5.8-2.4-8.6-3.6c-2.8-1.2-5.6-2.4-8.3-3.5c-1.6-0.6-2.3-2.4-1.7-4s2.4-2.3,4-1.7
					c2.8,1.1,5.6,2.3,8.4,3.5c2.8,1.2,5.6,2.4,8.5,3.6c1.6,0.6,2.3,2.4,1.7,4C755.3,536.6,754.1,537.3,752.9,537.3z M667.5,536.6
					c-0.9,0-1.7-0.4-2.3-1c-1.1-1.3-1-3.2,0.3-4.3c5.1-4.4,10.5-7.9,16.1-10.4c1.5-0.7,3.3,0,4,1.6c0.7,1.5,0,3.3-1.6,4
					c-5.1,2.2-10,5.4-14.6,9.4C668.9,536.3,668.2,536.6,667.5,536.6z M840.3,532.8c-1,0-2-0.5-2.6-1.4c-0.9-1.4-0.5-3.3,0.9-4.2
					c4.8-3.1,9.6-6.7,14.2-10.8c1.3-1.1,3.2-1,4.3,0.3c1.1,1.3,1,3.2-0.3,4.3c-4.9,4.3-9.9,8.1-15,11.3
					C841.5,532.6,840.9,532.8,840.3,532.8z M718.7,524.3c-0.2,0-0.5,0-0.7-0.1c-6.2-1.5-11.6-2.1-17.2-1.8c-1.7,0.1-3.1-1.2-3.2-2.9
					c-0.1-1.7,1.2-3.1,2.9-3.2c6.2-0.4,12.3,0.3,19.1,2c1.6,0.4,2.6,2.1,2.2,3.7C721.3,523.4,720.1,524.3,718.7,524.3z"/>
			</g>
			<polygon class="st30" points="738.5,628 737.8,618 725,447 718.8,447 731.3,613.7 732.1,623.7 737.7,698.6 743.8,698.6 			"/>
			<polygon class="st30" points="1088.6,463.2 1088.1,468.8 1086.9,485.7 1086.4,491.5 1085.1,509.5 1084.6,516.2 1083.3,532.9 
				1082.9,538.9 1081.2,561.1 1080.7,567.6 1079.9,579.2 1079.4,585.8 1078,603.8 1077.6,609.6 1076.3,626.5 1075.9,632.2 
				1070.9,698.6 1071.1,698.6 1071.1,698.6 1077.1,698.6 1081.9,634.2 1082.3,628.6 1083.5,612.2 1084,606.5 1085.2,589.6 
				1085.7,583.6 1087.2,563.9 1088.1,551.2 1088.6,545.2 1089.5,532.8 1091,512.7 1091.4,506.7 1092.7,489.7 1093.1,484.1 
				1094.4,467.7 1094.8,462.1 1095.9,447 1089.8,447 			"/>
			<polygon class="st15" points="720.2,698.6 699.9,643.8 671.9,643.8 692.2,698.6 			"/>
			<linearGradient id="SVGID_8_" gradientUnits="userSpaceOnUse" x1="572.5652" y1="731.7669" x2="908.1755" y2="731.7669">
				<stop  offset="0" style="stop-color:#B3BAC5"/>
				<stop  offset="1" style="stop-color:#DFE1E5"/>
			</linearGradient>
			<polygon class="st31" points="751.4,764.9 745.3,698.6 743.8,698.6 745.2,717.7 739.1,718.2 737.7,698.6 616.7,698.6 
				625.9,764.9 908.2,764.9 908.2,764.9 			"/>
			<polygon class="st30" points="745.2,717.7 743.8,698.6 737.7,698.6 739.1,718.2 			"/>
			<linearGradient id="SVGID_9_" gradientUnits="userSpaceOnUse" x1="572.5652" y1="708.4233" x2="908.1755" y2="708.4233">
				<stop  offset="0" style="stop-color:#B3BAC5"/>
				<stop  offset="1" style="stop-color:#DFE1E5"/>
			</linearGradient>
			<polygon class="st32" points="745.2,717.7 743.8,698.6 737.7,698.6 739.1,718.2 			"/>
			<polygon class="st16" points="1065,764.9 908.2,764.9 908.2,764.9 1190.5,764.9 1207.1,645.4 1144.8,645.4 1124.4,700.2 
				1096.4,700.2 1097,698.6 1077.1,698.6 1071.1,698.6 			"/>
			<polygon class="st12" points="1005.4,698.6 899.2,698.6 865.9,698.6 811,698.6 793.5,698.6 775.9,698.6 762.2,698.6 745.3,698.6 
				745.3,698.6 751.4,764.9 908.2,764.9 1065,764.9 1071.1,698.6 1071.1,698.6 1070.9,698.6 1033.4,698.6 			"/>
			<polygon class="st15" points="671.9,643.8 609.1,643.8 616.7,698.6 692.2,698.6 			"/>
			<linearGradient id="SVGID_10_" gradientUnits="userSpaceOnUse" x1="571.1703" y1="737.8987" x2="676.5912" y2="649.4401">
				<stop  offset="0.3411" style="stop-color:#B3BAC5"/>
				<stop  offset="0.5377" style="stop-color:#BBC1CB"/>
				<stop  offset="0.8434" style="stop-color:#D1D5DB"/>
				<stop  offset="1" style="stop-color:#DFE1E5"/>
			</linearGradient>
			<polygon class="st33" points="671.9,643.8 609.1,643.8 616.7,698.6 692.2,698.6 			"/>
			<polygon class="st15" points="1124.4,700.2 1144.8,645.4 1116.8,645.4 1097,698.6 1096.4,700.2 			"/>
			<linearGradient id="SVGID_11_" gradientUnits="userSpaceOnUse" x1="572.5652" y1="413.8316" x2="1243.7856" y2="413.8316">
				<stop  offset="0.6477" style="stop-color:#B3BAC5"/>
				<stop  offset="1" style="stop-color:#DFE1E5"/>
			</linearGradient>
			<path class="st34" d="M573.9,390l7.9,57h137.1l-1-14l6.1-0.5L725,447h73.3l0-1.3l2.9-0.5l3.3,0l0,1.8h30.8l0-1.3l2.9-0.5l3.3,0
				l0,1.8h30.8l0-1.3l2.9-0.5l3.3,0l0,1.8h30.8l0-1.3l2.9-0.5l3.3,0l0,1.8h174.3l1.1-14.5l6.1,0.5l-1,14h138.7l7.9-57
				c0.7-4.9-3.1-9.3-8.1-9.3H581.9C577,380.7,573.2,385.1,573.9,390z"/>
			<polygon class="st10" points="804.5,445.1 801.2,445.2 798.3,445.7 798.3,447 804.5,447 			"/>
			<linearGradient id="SVGID_12_" gradientUnits="userSpaceOnUse" x1="572.5652" y1="446.0464" x2="1243.7856" y2="446.0464">
				<stop  offset="0.6477" style="stop-color:#B3BAC5"/>
				<stop  offset="1" style="stop-color:#DFE1E5"/>
			</linearGradient>
			<polygon class="st35" points="804.5,445.1 801.2,445.2 798.3,445.7 798.3,447 804.5,447 			"/>
			<polygon class="st10" points="841.5,445.1 838.2,445.2 835.3,445.7 835.3,447 841.5,447 			"/>
			<linearGradient id="SVGID_13_" gradientUnits="userSpaceOnUse" x1="572.5652" y1="446.0464" x2="1243.7856" y2="446.0464">
				<stop  offset="0.6477" style="stop-color:#B3BAC5"/>
				<stop  offset="1" style="stop-color:#DFE1E5"/>
			</linearGradient>
			<polygon class="st36" points="841.5,445.1 838.2,445.2 835.3,445.7 835.3,447 841.5,447 			"/>
			<polygon class="st10" points="915.5,445.1 912.2,445.2 909.3,445.7 909.3,447 915.5,447 			"/>
			<linearGradient id="SVGID_14_" gradientUnits="userSpaceOnUse" x1="572.5652" y1="446.0464" x2="1243.7856" y2="446.0464">
				<stop  offset="0.6477" style="stop-color:#B3BAC5"/>
				<stop  offset="1" style="stop-color:#DFE1E5"/>
			</linearGradient>
			<polygon class="st37" points="915.5,445.1 912.2,445.2 909.3,445.7 909.3,447 915.5,447 			"/>
			<polygon class="st10" points="878.5,445.1 875.2,445.2 872.3,445.7 872.3,447 878.5,447 			"/>
			<linearGradient id="SVGID_15_" gradientUnits="userSpaceOnUse" x1="572.5652" y1="446.0464" x2="1243.7856" y2="446.0464">
				<stop  offset="0.6477" style="stop-color:#B3BAC5"/>
				<stop  offset="1" style="stop-color:#DFE1E5"/>
			</linearGradient>
			<polygon class="st38" points="878.5,445.1 875.2,445.2 872.3,445.7 872.3,447 878.5,447 			"/>
			<polygon class="st30" points="723.9,432.5 717.8,432.9 718.8,447 725,447 			"/>
			<linearGradient id="SVGID_16_" gradientUnits="userSpaceOnUse" x1="572.5652" y1="439.7167" x2="1243.7856" y2="439.7167">
				<stop  offset="0.6477" style="stop-color:#B3BAC5"/>
				<stop  offset="1" style="stop-color:#DFE1E5"/>
			</linearGradient>
			<polygon class="st39" points="723.9,432.5 717.8,432.9 718.8,447 725,447 			"/>
			<polygon class="st30" points="1090.9,432.5 1089.8,447 1095.9,447 1097,432.9 			"/>
			<linearGradient id="SVGID_17_" gradientUnits="userSpaceOnUse" x1="572.5652" y1="439.7167" x2="1243.7856" y2="439.7167">
				<stop  offset="0.6477" style="stop-color:#B3BAC5"/>
				<stop  offset="1" style="stop-color:#DFE1E5"/>
			</linearGradient>
			<polygon class="st40" points="1090.9,432.5 1089.8,447 1095.9,447 1097,432.9 			"/>
			<rect x="936.1" y="655.3" class="st24" width="12.1" height="12.1"/>
			<rect x="948.2" y="655.3" class="st10" width="12.1" height="12.1"/>
			<rect x="960.4" y="655.3" class="st28" width="12.1" height="12.1"/>
			<polygon class="st12" points="948.2,679.5 948.2,667.4 948.2,667.4 936.1,667.4 936.1,667.4 936.1,679.5 			"/>
			<polygon class="st24" points="960.4,667.4 960.4,667.4 948.2,667.4 948.2,667.4 948.2,679.5 960.4,679.5 			"/>
			<polygon class="st1" points="960.4,667.4 960.4,667.4 960.4,679.5 972.5,679.5 972.5,667.4 972.5,667.4 			"/>
			<polygon class="st28" points="948.2,691.6 948.2,679.5 948.2,679.5 936.1,679.5 936.1,679.5 936.1,691.6 			"/>
			<polygon class="st1" points="960.4,679.5 948.2,679.5 948.2,679.5 948.2,691.6 960.4,691.6 960.4,679.5 			"/>
			<polygon class="st12" points="960.4,679.5 960.4,679.5 960.4,691.6 972.5,691.6 972.5,679.5 972.5,679.5 			"/>
		</g>
		<g>
			<linearGradient id="SVGID_18_" gradientUnits="userSpaceOnUse" x1="634.335" y1="345.5394" x2="640.444" y2="345.5394">
				<stop  offset="0.372" style="stop-color:#DFE1E5"/>
				<stop  offset="0.6173" style="stop-color:#E8E9EC"/>
				<stop  offset="1" style="stop-color:#FFFFFF"/>
			</linearGradient>
			<rect x="634.3" y="310.4" class="st41" width="6.1" height="70.3"/>
		</g>
		<g>
			<linearGradient id="SVGID_19_" gradientUnits="userSpaceOnUse" x1="1174.595" y1="345.5394" x2="1180.704" y2="345.5394">
				<stop  offset="0.372" style="stop-color:#DFE1E5"/>
				<stop  offset="0.6173" style="stop-color:#E8E9EC"/>
				<stop  offset="1" style="stop-color:#FFFFFF"/>
			</linearGradient>
			<rect x="1174.6" y="310.4" class="st42" width="6.1" height="70.3"/>
		</g>
		<linearGradient id="SVGID_20_" gradientUnits="userSpaceOnUse" x1="860.0667" y1="150.9971" x2="950.6649" y2="60.3988">
			<stop  offset="0.2817" style="stop-color:#C1C7D0"/>
			<stop  offset="0.503" style="stop-color:#CACFD6"/>
			<stop  offset="0.8222" style="stop-color:#DFE1E5"/>
			<stop  offset="0.8916" style="stop-color:#E8E9EC"/>
			<stop  offset="1" style="stop-color:#FFFFFF"/>
		</linearGradient>
		<path class="st43" d="M946.1,138.2h-81.6V80.6c0-16.7,13.6-30.3,30.3-30.3h21c16.7,0,30.3,13.6,30.3,30.3V138.2z"/>
		<linearGradient id="XMLID_5_" gradientUnits="userSpaceOnUse" x1="841.0375" y1="265.4492" x2="975.3134" y2="131.1732">
			<stop  offset="0.372" style="stop-color:#DFE1E5"/>
			<stop  offset="0.6173" style="stop-color:#E8E9EC"/>
			<stop  offset="1" style="stop-color:#FFFFFF"/>
		</linearGradient>
		<circle id="XMLID_96_" class="st44" cx="908.2" cy="198.3" r="94.9"/>
		<path class="st45" d="M996.8,232.3c-50.5,5.3-77.3-7.6-92.5-20.1c-27.6-22.8-29-54.7-50.6-91.6c-24.5,17.2-40.5,45.6-40.5,77.8
			c0,52.4,42.5,94.9,94.9,94.9C948.6,293.3,983.2,267.9,996.8,232.3z"/>
		<g>
			<defs>
				<circle id="XMLID_108_" cx="908.2" cy="198.3" r="65.2"/>
			</defs>
			<use xlink:href="#XMLID_108_"  style="overflow:visible;fill:#B3BAC5;"/>
			<clipPath id="XMLID_6_">
				<use xlink:href="#XMLID_108_"  style="overflow:visible;"/>
			</clipPath>
			<path class="st46" d="M957.4,260.3l-73.6,75.3L742.7,197.6l73.6-75.3c8.3,5.8,21,16,32.4,31.7c26.5,36.3,19.4,65.1,41.2,86.8
				C900,250.8,918.8,261.9,957.4,260.3z"/>
		</g>
		<linearGradient id="SVGID_21_" gradientUnits="userSpaceOnUse" x1="692.2324" y1="327.5381" x2="1124.1184" y2="327.5381">
			<stop  offset="0" style="stop-color:#B3BAC5"/>
			<stop  offset="1" style="stop-color:#DFE1E5"/>
		</linearGradient>
		<polygon class="st47" points="1124.1,380.7 692.2,380.7 713.8,274.4 1102.6,274.4 		"/>
		<polygon class="st12" points="1010.6,380.7 805.7,380.7 815.9,274.4 1000.4,274.4 		"/>
		<g>
			<linearGradient id="SVGID_22_" gradientUnits="userSpaceOnUse" x1="732.1778" y1="345.5394" x2="738.2869" y2="345.5394">
				<stop  offset="0.372" style="stop-color:#DFE1E5"/>
				<stop  offset="0.6173" style="stop-color:#E8E9EC"/>
				<stop  offset="1" style="stop-color:#FFFFFF"/>
			</linearGradient>
			<rect x="732.2" y="310.4" class="st48" width="6.1" height="70.3"/>
		</g>
		<linearGradient id="SVGID_23_" gradientUnits="userSpaceOnUse" x1="689.6378" y1="313.2033" x2="780.8276" y2="313.2033">
			<stop  offset="0" style="stop-color:#B3BAC5"/>
			<stop  offset="1" style="stop-color:#DFE1E5"/>
		</linearGradient>
		<circle class="st49" cx="735.2" cy="313.2" r="45.6"/>
		<g>
			<g>
				<linearGradient id="SVGID_24_" gradientUnits="userSpaceOnUse" x1="581.8963" y1="278.4137" x2="648.8525" y2="316.9749">
					<stop  offset="0" style="stop-color:#B3BAC5"/>
					<stop  offset="1" style="stop-color:#DFE1E5"/>
				</linearGradient>
				<path class="st50" d="M659.6,332.5c-18,18-42.6,22.7-54.8,10.5c-12.2-12.2-7.5-36.8,10.5-54.8s42.6-22.7,54.8-10.5
					S677.6,314.5,659.6,332.5z"/>
			</g>
			<g>
				<line class="st12" x1="637.4" y1="310.4" x2="607.4" y2="284.9"/>
				<linearGradient id="SVGID_25_" gradientUnits="userSpaceOnUse" x1="605.3867" y1="297.6516" x2="639.3642" y2="297.6516">
					<stop  offset="0.372" style="stop-color:#DFE1E5"/>
					<stop  offset="0.6173" style="stop-color:#E8E9EC"/>
					<stop  offset="1" style="stop-color:#FFFFFF"/>
				</linearGradient>
				<polygon class="st51" points="635.4,312.7 605.4,287.3 609.3,282.6 639.4,308 				"/>
			</g>
			<g>
				<linearGradient id="SVGID_26_" gradientUnits="userSpaceOnUse" x1="592.2042" y1="280.4928" x2="612.0466" y2="280.4928">
					<stop  offset="0" style="stop-color:#B3BAC5"/>
					<stop  offset="1" style="stop-color:#DFE1E5"/>
				</linearGradient>
				<path class="st52" d="M602.1,290.4c-5.5,0-9.9-4.5-9.9-9.9c0-5.5,4.5-9.9,9.9-9.9c5.5,0,9.9,4.5,9.9,9.9
					C612,286,607.6,290.4,602.1,290.4z M602.1,276.7c-2.1,0-3.8,1.7-3.8,3.8c0,2.1,1.7,3.8,3.8,3.8c2.1,0,3.8-1.7,3.8-3.8
					C605.9,278.4,604.2,276.7,602.1,276.7z"/>
			</g>
		</g>
		<g>
			<g>
				<linearGradient id="SVGID_27_" gradientUnits="userSpaceOnUse" x1="1121.8705" y1="309.8882" x2="1202.4983" y2="310.5894">
					<stop  offset="0" style="stop-color:#B3BAC5"/>
					<stop  offset="1" style="stop-color:#DFE1E5"/>
				</linearGradient>
				<path class="st53" d="M1155.5,332.5c18,18,42.6,22.7,54.8,10.5c12.2-12.2,7.5-36.8-10.5-54.8s-42.6-22.7-54.8-10.5
					S1137.4,314.5,1155.5,332.5z"/>
			</g>
			<g>
				<line class="st12" x1="1177.6" y1="310.4" x2="1207.7" y2="284.9"/>
				
					<linearGradient id="SVGID_28_" gradientUnits="userSpaceOnUse" x1="957.4232" y1="297.6516" x2="991.4007" y2="297.6516" gradientTransform="matrix(-1 0 0 1 2167.0754 0)">
					<stop  offset="0.372" style="stop-color:#DFE1E5"/>
					<stop  offset="0.6173" style="stop-color:#E8E9EC"/>
					<stop  offset="1" style="stop-color:#FFFFFF"/>
				</linearGradient>
				<polygon class="st54" points="1179.6,312.7 1175.7,308 1205.7,282.6 1209.7,287.3 				"/>
			</g>
			<g>
				<linearGradient id="SVGID_29_" gradientUnits="userSpaceOnUse" x1="1202.9923" y1="280.4928" x2="1222.8347" y2="280.4928">
					<stop  offset="0" style="stop-color:#B3BAC5"/>
					<stop  offset="1" style="stop-color:#DFE1E5"/>
				</linearGradient>
				<path class="st55" d="M1212.9,290.4c-5.5,0-9.9-4.5-9.9-9.9c0-5.5,4.5-9.9,9.9-9.9s9.9,4.5,9.9,9.9
					C1222.8,286,1218.4,290.4,1212.9,290.4z M1212.9,276.7c-2.1,0-3.8,1.7-3.8,3.8c0,2.1,1.7,3.8,3.8,3.8c2.1,0,3.8-1.7,3.8-3.8
					C1216.7,278.4,1215,276.7,1212.9,276.7z"/>
			</g>
		</g>
		<g>
			<rect x="769.6" y="181" class="st1" width="6.1" height="93.4"/>
		</g>
		<circle class="st56" cx="772.6" cy="174.1" r="6.9"/>
		<g>
			<rect x="905.1" y="447" class="st12" width="6.1" height="252.2"/>
		</g>
		<g>
			<rect x="1045.5" y="240.6" class="st1" width="6.1" height="33.7"/>
		</g>
		<g>
			<rect x="1088.7" y="240.6" class="st1" width="6.1" height="33.7"/>
		</g>
		<polygon class="st12" points="1096.7,380.7 1091.8,447 721.9,447 716.9,380.7 		"/>
		<polygon class="st58" points="1050.8,929.7 765.4,929.7 759.3,848.8 1056.9,848.8 		"/>
		<circle class="st59" cx="1173.7" cy="730.5" r="12.9"/>
		<circle class="st14" cx="834.9" cy="665.4" r="3.5"/>
		<circle class="st12" cx="844.5" cy="665.4" r="3.5"/>
		<circle class="st19" cx="854.1" cy="665.4" r="3.5"/>
		<circle class="st60" cx="834.9" cy="676.2" r="3.5"/>
		<circle class="st14" cx="844.5" cy="676.2" r="3.5"/>
		<circle class="st12" cx="854.1" cy="676.2" r="3.5"/>
		<circle class="st14" cx="834.9" cy="687" r="3.5"/>
		<circle class="st60" cx="844.5" cy="687" r="3.5"/>
		<circle class="st14" cx="854.1" cy="687" r="3.5"/>
		<g>
			<polyline class="st19" points="1220.4,876.6 1246.9,910.1 1364,830.8 1220.4,876.6 			"/>
			<polygon class="st61" points="1364,830.8 1203.2,901.4 1220.4,876.6 			"/>
			<polygon class="st62" points="1220.4,876.6 1237.6,851.8 1364,830.8 			"/>
		</g>
		<g>
			<polyline class="st63" points="1501.4,452.3 1514,493.1 1651.8,461.5 1501.4,452.3 			"/>
			<polygon class="st64" points="1651.8,461.5 1476.4,469.2 1501.4,452.3 			"/>
			<polygon class="st65" points="1501.4,452.3 1526.4,435.4 1651.8,461.5 			"/>
		</g>
		<g>
			<g class="st5">
				
					<linearGradient id="SVGID_30_" gradientUnits="userSpaceOnUse" x1="649.149" y1="380.3027" x2="1015.2911" y2="380.3027" gradientTransform="matrix(0.9497 -0.313 0.313 0.9497 -743.6449 354.3182)">
					<stop  offset="0" style="stop-color:#4C9AFF;stop-opacity:0"/>
					<stop  offset="1" style="stop-color:#4C9AFF"/>
				</linearGradient>
				<path class="st66" d="M47.7,674.9c-1.5,0-2.8-1.1-3-2.6c-1-6.2-1.8-12.1-2.5-18.3c-0.2-1.7,1-3.2,2.7-3.4c1.7-0.2,3.2,1,3.4,2.7
					c0.7,6.1,1.5,11.9,2.5,18c0.3,1.7-0.9,3.2-2.5,3.5C48,674.9,47.9,674.9,47.7,674.9z M43.5,638.5c-1.6,0-2.9-1.2-3-2.8
					c-0.4-6.1-0.7-12.3-0.9-18.4c0-1.7,1.3-3.1,3-3.1c0,0,0.1,0,0.1,0c1.6,0,3,1.3,3.1,3c0.2,6,0.5,12.2,0.9,18.2
					c0.1,1.7-1.1,3.1-2.8,3.3C43.6,638.5,43.6,638.5,43.5,638.5z M42.5,601.8C42.5,601.8,42.5,601.8,42.5,601.8
					c-1.7,0-3.1-1.4-3.1-3.1c0.1-6.1,0.3-12.3,0.7-18.4c0.1-1.7,1.6-2.9,3.2-2.9c1.7,0.1,3,1.6,2.9,3.2c-0.4,6-0.6,12.1-0.7,18.2
					C45.5,600.5,44.2,601.8,42.5,601.8z M44.8,565.3c-0.1,0-0.2,0-0.3,0c-1.7-0.2-2.9-1.7-2.7-3.4c0.7-6.1,1.5-12.3,2.4-18.3
					c0.3-1.7,1.8-2.8,3.5-2.6c1.7,0.3,2.8,1.8,2.6,3.5c-0.9,5.9-1.7,12-2.3,18C47.6,564.1,46.3,565.3,44.8,565.3z M50.3,529
					c-0.2,0-0.4,0-0.6-0.1c-1.7-0.3-2.7-1.9-2.4-3.6c1.2-6,2.6-12.1,4-18c0.4-1.6,2.1-2.6,3.7-2.2c1.6,0.4,2.6,2.1,2.2,3.7
					c-1.5,5.8-2.8,11.8-4,17.7C53,528,51.7,529,50.3,529z M59.2,493.5c-0.3,0-0.6,0-0.9-0.1c-1.6-0.5-2.5-2.2-2.1-3.8
					c1.8-5.9,3.7-11.8,5.7-17.6c0.6-1.6,2.3-2.4,3.9-1.9c1.6,0.6,2.4,2.3,1.9,3.9c-2,5.7-3.9,11.5-5.6,17.3
					C61.7,492.6,60.5,493.5,59.2,493.5z M71.3,458.9c-0.4,0-0.8-0.1-1.1-0.2c-1.6-0.6-2.3-2.4-1.7-4c1.1-2.6,2.2-5.3,3.3-7.9
					c1.3-3.1,2.7-6.1,4-9.1c0.7-1.5,2.5-2.2,4.1-1.5c1.5,0.7,2.2,2.5,1.5,4.1c-1.4,2.9-2.7,5.9-4,8.9c-1.1,2.6-2.2,5.2-3.2,7.8
					C73.6,458.2,72.5,458.9,71.3,458.9z M86.6,425.6c-0.5,0-1-0.1-1.4-0.3c-1.5-0.8-2.1-2.6-1.3-4.1c2.8-5.4,5.8-10.9,8.9-16.2
					c0.8-1.5,2.7-2,4.2-1.1c1.5,0.8,2,2.7,1.1,4.2c-3,5.2-6,10.6-8.8,15.9C88.8,425,87.7,425.6,86.6,425.6z M105,394
					c-0.6,0-1.1-0.2-1.7-0.5c-1.4-0.9-1.8-2.8-0.9-4.2c3.3-5.1,6.8-10.3,10.4-15.3c1-1.4,2.9-1.7,4.3-0.7c1.4,1,1.7,2.9,0.7,4.3
					c-3.5,4.9-6.9,10-10.2,15C107,393.5,106,394,105,394z M126.3,364.2c-0.7,0-1.3-0.2-1.9-0.7c-1.3-1-1.6-3-0.5-4.3
					c3.8-4.8,7.7-9.6,11.8-14.2c1.1-1.3,3-1.4,4.3-0.3c1.3,1.1,1.4,3,0.3,4.3c-4,4.6-7.9,9.3-11.6,14
					C128.1,363.8,127.2,364.2,126.3,364.2z M150.3,336.4c-0.8,0-1.5-0.3-2.1-0.8c-1.2-1.2-1.3-3.1-0.1-4.3c4.2-4.4,8.6-8.9,13-13.1
					c1.2-1.2,3.1-1.1,4.3,0.1c1.2,1.2,1.1,3.1-0.1,4.3c-4.4,4.2-8.7,8.6-12.8,12.9C151.9,336.1,151.1,336.4,150.3,336.4z M176.6,311
					c-0.8,0-1.7-0.3-2.3-1c-1.1-1.3-1-3.2,0.3-4.3c4.6-4,9.3-8.1,14.1-11.9c1.3-1.1,3.2-0.9,4.3,0.4c1.1,1.3,0.9,3.2-0.4,4.3
					c-4.7,3.8-9.4,7.8-13.9,11.8C178.1,310.7,177.4,311,176.6,311z M205.1,287.9c-0.9,0-1.9-0.4-2.5-1.2c-1-1.4-0.7-3.3,0.6-4.3
					c4.9-3.6,10-7.2,15-10.7c1.4-1,3.3-0.6,4.2,0.8c0.9,1.4,0.6,3.3-0.8,4.2c-5,3.4-10,7-14.8,10.6
					C206.4,287.7,205.7,287.9,205.1,287.9z M235.4,267.2c-1,0-2-0.5-2.6-1.4c-0.9-1.4-0.5-3.3,1-4.2c5.2-3.2,10.5-6.4,15.9-9.4
					c1.5-0.8,3.3-0.3,4.2,1.2c0.8,1.5,0.3,3.3-1.2,4.2c-5.3,3-10.5,6.1-15.7,9.3C236.5,267.1,236,267.2,235.4,267.2z M267.3,249.2
					c-1.1,0-2.2-0.6-2.7-1.7c-0.8-1.5-0.2-3.3,1.3-4.1c5.6-2.8,11.2-5.5,16.7-8c1.5-0.7,3.3,0,4,1.5c0.7,1.5,0,3.3-1.5,4
					c-5.4,2.5-10.9,5.1-16.4,7.9C268.3,249.1,267.8,249.2,267.3,249.2z"/>
			</g>
			<g>
				<polyline class="st22" points="330.9,198.6 355.3,233.6 477,161.7 330.9,198.6 				"/>
			</g>
			<g>
				<polygon class="st60" points="477,161.7 312.2,222.3 330.9,198.6 				"/>
			</g>
			<g>
				<polygon class="st60" points="330.9,198.6 349.6,174.9 477,161.7 				"/>
			</g>
		</g>
		<g class="st5">
			<circle class="st67" cx="1700.8" cy="748.9" r="4.5"/>
			<circle class="st67" cx="588.5" cy="840" r="4.5"/>
			<circle class="st67" cx="349.3" cy="724.1" r="4.5"/>
			<circle class="st67" cx="1339" cy="517.9" r="4.5"/>
			<circle class="st67" cx="1329.9" cy="349.3" r="4.5"/>
			<circle class="st67" cx="1740.5" cy="785.1" r="4.5"/>
			<circle class="st67" cx="412" cy="650.6" r="4.5"/>
			<circle class="st67" cx="498.7" cy="959.9" r="4.5"/>
			<circle class="st67" cx="1133.8" cy="115.4" r="4.5"/>
			<circle class="st67" cx="692.2" cy="174.1" r="4.5"/>
			<circle class="st67" cx="1380.9" cy="831.2" r="4.5"/>
			<circle class="st67" cx="1274.1" cy="860.4" r="4.5"/>
			<circle class="st67" cx="1402.2" cy="108.3" r="4.5"/>
			<circle class="st67" cx="1265" cy="141.2" r="4.5"/>
			<g class="st68">
				<path class="st69" d="M1275.4,237.3c0.1,0.7,0.1,1.4,0,2.1c-0.1,0.7-0.4,1.3-0.7,1.9l52.5,9.5c0.2-1.4,0.4-2.7,0.8-4
					L1275.4,237.3z"/>
				<path class="st69" d="M1372.2,281c-0.3,0.2-0.6,0.3-0.9,0.5c-0.2,0.1-0.5,0.2-0.7,0.3c-0.7,0.3-1.4,0.6-2.1,0.9l26.1,52.7
					c1-1,2.3-1.6,3.7-1.8L1372.2,281z"/>
				<path class="st69" d="M1400.3,179.5c-1.4-0.3-2.6-1-3.6-2l-27.1,48.8c1.3,0.5,2.5,1.2,3.6,1.9L1400.3,179.5z"/>
				<path class="st1" d="M1400.3,179.5C1400.3,179.5,1400.3,179.5,1400.3,179.5c3.6,0.6,6.9-1.7,7.5-5.2c0.6-3.5-1.7-6.9-5.2-7.5
					c-3.5-0.6-6.9,1.7-7.5,5.2c-0.4,2.1,0.3,4.1,1.6,5.5C1397.6,178.5,1398.8,179.2,1400.3,179.5z"/>
				<path class="st69" d="M1466.2,270.1l-64.1,64.1c1.3,0.6,2.3,1.6,2.9,2.9l64.1-64.1C1467.9,272.4,1466.8,271.4,1466.2,270.1z"/>
				<path class="st1" d="M1473.1,260.9c-3.5-0.6-6.9,1.7-7.5,5.2c-0.3,1.4,0,2.8,0.6,4c0.6,1.2,1.6,2.2,2.9,2.9
					c0.5,0.3,1.1,0.5,1.7,0.6c3.5,0.6,6.9-1.7,7.5-5.2C1479,264.9,1476.7,261.5,1473.1,260.9z"/>
				<path class="st1" d="M1275.4,237.3c-0.4-2.7-2.4-4.9-5.2-5.4c-3.5-0.6-6.9,1.7-7.5,5.2c-0.6,3.5,1.7,6.9,5.2,7.5
					c2.8,0.5,5.5-0.9,6.8-3.3c0.3-0.6,0.6-1.2,0.7-1.9C1275.5,238.6,1275.5,238,1275.4,237.3z"/>
				<path class="st1" d="M1402.1,334.3c-0.5-0.3-1.1-0.5-1.7-0.6c-0.7-0.1-1.4-0.1-2,0c-1.4,0.2-2.7,0.8-3.7,1.8
					c-0.9,0.9-1.6,2.1-1.8,3.4c-0.6,3.5,1.7,6.9,5.2,7.5c3.5,0.6,6.9-1.7,7.5-5.2c0.3-1.4,0-2.8-0.6-4
					C1404.4,335.9,1403.4,334.9,1402.1,334.3z"/>
				<path class="st70" d="M1361.2,284.6c-0.3,0-0.6,0.1-0.9,0.1C1360.6,284.7,1360.9,284.6,1361.2,284.6z"/>
				<path class="st70" d="M1364.1,284.1c-0.4,0.1-0.7,0.2-1.1,0.2C1363.4,284.3,1363.7,284.2,1364.1,284.1z"/>
				<path class="st70" d="M1347.3,283.1c-1.1-0.4-2.2-0.9-3.3-1.4C1345,282.2,1346.1,282.7,1347.3,283.1z"/>
				<path class="st70" d="M1349.3,283.7c-0.4-0.1-0.9-0.2-1.3-0.4C1348.4,283.5,1348.9,283.6,1349.3,283.7z"/>
				<path class="st70" d="M1351.9,284.3c-0.4-0.1-0.8-0.1-1.2-0.2C1351.1,284.2,1351.5,284.3,1351.9,284.3z"/>
				<path class="st70" d="M1343.6,281.5c-0.6-0.3-1.2-0.6-1.8-1C1342.4,280.9,1343,281.2,1343.6,281.5z"/>
				<path class="st70" d="M1354.6,284.7c-0.3,0-0.6-0.1-1-0.1C1354,284.6,1354.3,284.7,1354.6,284.7z"/>
				<path class="st70" d="M1366.8,283.4c-0.4,0.1-0.8,0.2-1.2,0.3C1366,283.6,1366.4,283.5,1366.8,283.4z"/>
				<path class="st70" d="M1375.1,279.2c-0.5,0.4-1.1,0.7-1.6,1.1C1374,280,1374.5,279.6,1375.1,279.2z"/>
				<path class="st70" d="M1349.7,269.4h-6.9c-0.9,0-1.7-0.8-1.7-1.7c0,0,0-3.1,0-3.1c0-0.4,0-15.2,0-15.7c0-1.1,0.1-6.9,4.8-11.5
					c3-3,7-4.8,11.5-4.8c9,0,16.3,7.3,16.3,16.3v18.8c0,0.9-0.8,1.7-1.7,1.7h-7c0.3,3,2.1,5.7,4.8,6.8c1.9,0.8,3.6,1.8,5.3,3
					c7.8-5.5,12.9-14.6,12.9-24.9c0-11.1-5.9-20.8-14.7-26.1c-1.2-0.7-2.4-1.3-3.6-1.9c-3.7-1.6-7.9-2.5-12.2-2.5
					c-14.3,0-26.2,9.8-29.6,23c-0.3,1.3-0.6,2.6-0.8,4c-0.1,1.2-0.2,2.3-0.2,3.5c0,10.2,5.1,19.3,12.8,24.8c1.6-1.1,3.3-2.1,5.1-2.9
					C1347.5,275.1,1349.3,272.4,1349.7,269.4z"/>
				<path class="st70" d="M1341.4,280.3c-0.6-0.4-1.2-0.8-1.8-1.2C1340.3,279.5,1340.8,279.9,1341.4,280.3z"/>
				<path class="st70" d="M1368.2,282.9c0.1,0,0.2-0.1,0.4-0.1c0.7-0.3,1.4-0.6,2.1-0.9C1369.8,282.2,1369,282.6,1368.2,282.9z"/>
				<path class="st70" d="M1371.3,281.5c0.3-0.2,0.6-0.3,0.9-0.5c0.2-0.1,0.4-0.3,0.7-0.4C1372.4,280.9,1371.9,281.2,1371.3,281.5z"
					/>
				<path class="st58" d="M1370.6,281.8c0.2-0.1,0.5-0.2,0.7-0.3c0.5-0.3,1.1-0.6,1.6-0.9c0.2-0.1,0.4-0.2,0.5-0.3
					c0.5-0.3,1.1-0.7,1.6-1.1c0,0,0,0,0,0l0,0c-1.7-1.2-3.4-2.2-5.3-3c-2.7-1.2-4.5-3.8-4.8-6.8h7c0.9,0,1.7-0.8,1.7-1.7v-18.8
					c0-9-7.3-16.3-16.3-16.3c-4.5,0-8.6,1.8-11.5,4.8c-4.7,4.7-4.8,10.5-4.8,11.5c0,0.4,0,15.2,0,15.7c0,0,0,3.1,0,3.1
					c0,0.9,0.8,1.7,1.7,1.7h6.9c-0.3,3-2.1,5.7-4.8,6.8c-1.8,0.8-3.5,1.8-5.1,2.9l0,0c0,0,0,0,0,0c0.6,0.4,1.2,0.8,1.8,1.2
					c0.1,0.1,0.2,0.1,0.4,0.2c0.6,0.3,1.2,0.7,1.8,1c0.1,0.1,0.3,0.1,0.4,0.2c1.1,0.5,2.2,1,3.3,1.4c0.3,0.1,0.5,0.2,0.8,0.3
					c0.4,0.1,0.9,0.2,1.3,0.4c0.5,0.1,0.9,0.3,1.4,0.4c0.4,0.1,0.8,0.2,1.2,0.2c0.6,0.1,1.2,0.2,1.8,0.3c0.3,0,0.6,0.1,1,0.1
					c0.9,0.1,1.9,0.1,2.8,0.1c1,0,1.9-0.1,2.8-0.1c0.3,0,0.6-0.1,0.9-0.1c0.6-0.1,1.2-0.2,1.8-0.3c0.4-0.1,0.7-0.1,1.1-0.2
					c0.5-0.1,1-0.3,1.5-0.4c0.4-0.1,0.8-0.2,1.2-0.3c0.5-0.2,0.9-0.3,1.4-0.5C1369,282.6,1369.8,282.2,1370.6,281.8z"/>
			</g>
			<g class="st68">
				<path class="st69" d="M154.4,737c0.1,0.7,0.1,1.4,0,2.1c-0.1,0.7-0.4,1.3-0.7,1.9l54.5,9.9c0.1-1.4,0.3-2.7,0.6-4L154.4,737z"/>
				<path class="st69" d="M247.9,782.4c-0.1,0-0.2,0.1-0.3,0.1l26.1,52.6c1-1,2.3-1.6,3.7-1.8l-26-52.3c-0.7,0.3-1.4,0.6-2.1,0.9
					C248.8,782.1,248.4,782.3,247.9,782.4z"/>
				<path class="st69" d="M275.8,677.2l-26.4,47.6c1.3,0.5,2.5,1,3.7,1.7l26.2-47.3C277.9,678.9,276.7,678.2,275.8,677.2z"/>
				<path class="st1" d="M281.7,666.5c-3.5-0.6-6.9,1.7-7.5,5.2c-0.4,2.1,0.3,4.1,1.6,5.5c0.9,1,2.1,1.7,3.6,2c0,0,0,0,0,0
					c3.5,0.6,6.9-1.7,7.5-5.2C287.5,670.5,285.2,667.1,281.7,666.5z"/>
				<path class="st1" d="M154.4,737c-0.4-2.7-2.4-4.9-5.2-5.4c-3.5-0.6-6.9,1.7-7.5,5.2c-0.6,3.5,1.7,6.9,5.2,7.5
					c2.8,0.5,5.5-0.9,6.8-3.3c0.3-0.6,0.6-1.2,0.7-1.9C154.5,738.4,154.5,737.7,154.4,737z"/>
				<path class="st1" d="M271.9,838.6c-0.6,3.5,1.7,6.9,5.2,7.5c3.5,0.6,6.9-1.7,7.5-5.2c0.6-3.5-1.7-6.9-5.2-7.5
					c-0.7-0.1-1.4-0.1-2,0c-1.4,0.2-2.7,0.8-3.7,1.8C272.8,836.1,272.2,837.2,271.9,838.6z"/>
				<path class="st70" d="M233,783.4c-0.4-0.1-0.8-0.1-1.2-0.2C232.2,783.2,232.6,783.3,233,783.4z"/>
				<path class="st70" d="M245.2,783.2c-0.4,0.1-0.7,0.2-1.1,0.2C244.5,783.3,244.9,783.3,245.2,783.2z"/>
				<path class="st70" d="M256.2,778.3c-0.5,0.4-1.1,0.7-1.6,1.1C255.1,779,255.6,778.7,256.2,778.3z"/>
				<path class="st70" d="M254,779.7c-0.5,0.3-1,0.6-1.6,0.9C253,780.3,253.5,780,254,779.7z"/>
				<path class="st70" d="M242.3,783.7c-0.3,0-0.6,0.1-0.9,0.1C241.7,783.7,242,783.7,242.3,783.7z"/>
				<path class="st70" d="M238.6,722.8c-14.6,0-26.8,10.3-29.8,24c-0.3,1.3-0.5,2.7-0.6,4c-0.1,0.8-0.1,1.7-0.1,2.5
					c0,11,5.8,20.6,14.5,26c-0.6-0.4-1.2-0.8-1.8-1.2c1.6-1.1,3.3-2.1,5.1-2.9c2.7-1.2,4.5-3.8,4.8-6.8h-6.9c-0.9,0-1.7-0.8-1.7-1.7
					c0,0,0-3.1,0-3.1c0-0.4,0-15.2,0-15.7c0-1.1,0.1-6.9,4.8-11.5c3-3,7-4.8,11.5-4.8c9,0,16.3,7.3,16.3,16.3v18.8
					c0,0.9-0.8,1.7-1.7,1.7h-7c0.3,3,2.1,5.7,4.8,6.8c1.9,0.8,3.6,1.8,5.3,3c7.8-5.5,12.9-14.6,12.9-24.9c0-11.6-6.5-21.7-16-26.9
					c-1.2-0.6-2.4-1.2-3.7-1.7C246,723.6,242.4,722.8,238.6,722.8z"/>
				<path class="st70" d="M224.7,780.6c-0.6-0.3-1.2-0.6-1.8-1C223.5,779.9,224.1,780.3,224.7,780.6z"/>
				<path class="st70" d="M230.4,782.8c-0.4-0.1-0.9-0.2-1.3-0.4C229.6,782.6,230,782.7,230.4,782.8z"/>
				<path class="st70" d="M235.7,783.8c-0.3,0-0.6-0.1-1-0.1C235.1,783.7,235.4,783.7,235.7,783.8z"/>
				<path class="st70" d="M228.4,782.1c-1.1-0.4-2.2-0.9-3.3-1.4C226.1,781.3,227.2,781.7,228.4,782.1z"/>
				<path class="st70" d="M246.8,782.8c0.3-0.1,0.6-0.1,0.9-0.2c0.1,0,0.2-0.1,0.3-0.1C247.5,782.6,247.1,782.7,246.8,782.8z"/>
				<path class="st70" d="M249.3,781.9c0.7-0.3,1.4-0.6,2.1-0.9c0.1,0,0.2-0.1,0.3-0.1C250.9,781.3,250.1,781.6,249.3,781.9z"/>
				<path class="st12" d="M246.1,768.5h7c0.9,0,1.7-0.8,1.7-1.7V748c0-9-7.3-16.3-16.3-16.3c-4.5,0-8.6,1.8-11.5,4.8
					c-4.7,4.7-4.8,10.5-4.8,11.5c0,0.4,0,15.2,0,15.7c0,0,0,3.1,0,3.1c0,0.9,0.8,1.7,1.7,1.7h6.9c-0.3,3-2.1,5.7-4.8,6.8
					c-1.8,0.8-3.5,1.8-5.1,2.9c0.6,0.4,1.2,0.8,1.8,1.2c0.1,0.1,0.2,0.1,0.4,0.2c0.6,0.3,1.2,0.7,1.8,1c0.1,0.1,0.3,0.1,0.4,0.2
					c1.1,0.5,2.2,1,3.3,1.4c0.3,0.1,0.5,0.2,0.8,0.3c0.4,0.1,0.9,0.2,1.3,0.4c0.5,0.1,0.9,0.3,1.4,0.4c0.4,0.1,0.8,0.2,1.2,0.2
					c0.6,0.1,1.2,0.2,1.8,0.3c0.3,0,0.6,0.1,1,0.1c0.9,0.1,1.9,0.1,2.8,0.1c0,0,0,0,0,0h0c1,0,1.9-0.1,2.8-0.1
					c0.3,0,0.6-0.1,0.9-0.1c0.6-0.1,1.2-0.2,1.8-0.3c0.4-0.1,0.7-0.1,1.1-0.2c0.5-0.1,1-0.3,1.5-0.4c0.4-0.1,0.8-0.2,1.2-0.3
					c0.5-0.2,0.9-0.3,1.4-0.5c0.8-0.3,1.6-0.7,2.4-1c0.2-0.1,0.5-0.2,0.7-0.3c0.5-0.3,1.1-0.6,1.6-0.9c0.2-0.1,0.4-0.2,0.5-0.3
					c0.5-0.3,1.1-0.7,1.6-1.1c0,0,0,0,0,0l0,0c-1.7-1.2-3.4-2.2-5.3-3C248.2,774.1,246.4,771.5,246.1,768.5z"/>
			</g>
			<g class="st68">
				<path class="st69" d="M1573.5,678.7l-27.6,44.1c1.2,0.6,2.4,1.4,3.5,2.1l27.6-44.1c-0.7-0.2-1.3-0.4-1.9-0.8
					C1574.5,679.7,1574,679.2,1573.5,678.7z"/>
				<path class="st69" d="M1501.3,747.2l-59.9-1.6c0.4,1.3,0.4,2.7-0.1,4.1l60,1.6c0-0.5-0.1-1-0.1-1.5
					C1501.2,748.9,1501.2,748.1,1501.3,747.2z"/>
				<path class="st69" d="M1437,741.4l-3.5-90.6c-1.3,0.5-2.7,0.5-4.1,0.2l3.5,90.6C1434.2,741,1435.7,741,1437,741.4z"/>
				<path class="st1" d="M1433.6,650.7c0.6-0.2,1.1-0.5,1.6-0.9c2.9-2.1,3.4-6.2,1.3-9c-2.1-2.9-6.2-3.4-9-1.3
					c-2.9,2.1-3.4,6.2-1.3,9c0.9,1.2,2.1,1.9,3.4,2.3C1430.8,651.3,1432.2,651.2,1433.6,650.7z"/>
				<path class="st1" d="M1581.9,669.1c-3-1.9-7-1-8.9,2c-1.5,2.4-1.2,5.4,0.5,7.5c0.4,0.5,0.9,1,1.5,1.4c0.6,0.4,1.3,0.6,1.9,0.8
					c2.6,0.6,5.5-0.4,7-2.8C1585.9,675,1585,671,1581.9,669.1z"/>
				<path class="st1" d="M1441.4,745.7c-0.4-1.4-1.4-2.7-2.7-3.6c-0.5-0.3-1.1-0.5-1.6-0.7c-1.4-0.4-2.8-0.3-4.1,0.2
					c-1.3,0.5-2.4,1.3-3.2,2.6c-1.9,3-1,7,2,8.9c3,1.9,7,1,8.9-2c0.2-0.4,0.4-0.8,0.6-1.2C1441.8,748.4,1441.8,747,1441.4,745.7z"/>
				<path class="st70" d="M1535.5,780.1c-0.3,0-0.6,0.1-1,0.1C1534.9,780.2,1535.2,780.1,1535.5,780.1z"/>
				<path class="st70" d="M1528.8,780.2c-0.3,0-0.7-0.1-1-0.1C1528.2,780.1,1528.5,780.2,1528.8,780.2z"/>
				<path class="st70" d="M1538.4,779.6c-0.4,0.1-0.8,0.2-1.2,0.2C1537.7,779.7,1538.1,779.7,1538.4,779.6z"/>
				<path class="st70" d="M1541.2,778.8c-0.4,0.1-0.9,0.2-1.3,0.4C1540.3,779.1,1540.7,779,1541.2,778.8z"/>
				<path class="st70" d="M1531.7,719.3c-16,0-29.1,12.3-30.4,28c-0.1,0.8-0.1,1.7-0.1,2.6c0,0.5,0.1,1,0.1,1.5
					c0.6,11.6,7.5,21.4,17.5,26.1c-2.1-1-4.1-2.2-5.9-3.6c1.8-1.2,3.8-2.3,5.8-3.1c3.2-1.3,5.2-4.3,5.2-7.8v0c0-2.5-1.1-4.8-3-6.4
					c-3.5-2.9-5.7-7.3-5.7-12.2c0-9.1,7.6-16.4,16.8-16c8.3,0.4,14.9,7.1,15.2,15.4c0.2,5.2-2.1,9.8-5.7,12.9
					c-1.9,1.6-2.9,3.9-2.9,6.3c0,3.4,2.1,6.5,5.3,7.8c1.6,0.7,3.4,2.3,5.7,3.9c-0.6,0.4-1.2,0.8-1.8,1.2c8.7-5.4,14.5-15,14.5-26
					c0-10.3-5.1-19.3-12.9-24.9c-1.1-0.8-2.3-1.5-3.5-2.1C1541.7,720.5,1536.9,719.3,1531.7,719.3z"/>
				<path class="st70" d="M1523.4,779.2c-0.5-0.1-0.9-0.3-1.4-0.4C1522.5,778.9,1522.9,779,1523.4,779.2z"/>
				<path class="st70" d="M1526,779.8c-0.4-0.1-0.8-0.2-1.3-0.3C1525.2,779.6,1525.6,779.7,1526,779.8z"/>
				<path class="st70" d="M1520.9,778.3c-0.5-0.2-1-0.4-1.5-0.6C1519.9,777.9,1520.4,778.1,1520.9,778.3z"/>
				<path class="st70" d="M1545.2,777.2c-1.1,0.5-2.2,1-3.3,1.4C1543.1,778.2,1544.2,777.7,1545.2,777.2z"/>
				<path class="st70" d="M1547.4,776c-0.6,0.3-1.2,0.7-1.8,1C1546.2,776.7,1546.8,776.3,1547.4,776z"/>
				<path class="st58" d="M1543.8,770.7c-3.2-1.3-5.3-4.4-5.3-7.8c0-2.4,1-4.8,2.9-6.3c3.7-3.1,5.9-7.7,5.7-12.9
					c-0.3-8.3-7-15-15.2-15.4c-9.2-0.4-16.8,6.9-16.8,16c0,4.9,2.2,9.3,5.7,12.2c1.9,1.6,3,3.9,3,6.4v0c0,3.4-2.1,6.5-5.2,7.8
					c-2,0.8-4,1.9-5.8,3.1c1.8,1.4,3.8,2.6,5.9,3.6c0.2,0.1,0.4,0.2,0.6,0.3c0.5,0.2,1,0.4,1.5,0.6c0.4,0.1,0.7,0.3,1.1,0.4
					c0.5,0.2,0.9,0.3,1.4,0.4c0.5,0.1,0.9,0.3,1.4,0.4c0.4,0.1,0.8,0.2,1.3,0.3c0.6,0.1,1.2,0.2,1.8,0.3c0.3,0,0.7,0.1,1,0.1
					c1,0.1,1.9,0.1,2.9,0.1c1,0,1.9-0.1,2.8-0.1c0.3,0,0.6-0.1,1-0.1c0.6-0.1,1.2-0.2,1.8-0.3c0.4-0.1,0.8-0.1,1.2-0.2
					c0.5-0.1,1-0.2,1.4-0.4c0.4-0.1,0.9-0.2,1.3-0.4c0.3-0.1,0.5-0.2,0.8-0.3c1.1-0.4,2.2-0.9,3.3-1.4c0.1-0.1,0.3-0.1,0.4-0.2
					c0.6-0.3,1.2-0.6,1.8-1c0.1-0.1,0.2-0.1,0.4-0.2c0.6-0.4,1.2-0.8,1.8-1.2C1547.2,773,1545.5,771.4,1543.8,770.7z"/>
			</g>
		</g>
		<path id="XMLID_105_" class="st69" d="M933.9,180.5c0-13.2-10.7-23.8-23.8-23.8s-23.8,10.7-23.8,23.8c0,8.2,4.2,15.5,10.5,19.8
			l-5.4,35.1h37.5l-5.4-35.1C929.7,196,933.9,188.7,933.9,180.5z"/>
		<path class="st71" d="M927.7,180.5c0-12.1-9-22.1-20.7-23.6c-11.7,1.5-20.7,11.5-20.7,23.6c0,8.2,4.2,15.5,10.5,19.8l-5.4,35.1
			h31.3l-5.4-35.1C923.5,196,927.7,188.7,927.7,180.5z"/>
		<polygon class="st71" points="986.5,158.9 1011,175.8 1020.5,199.5 1015.7,202.4 1004.2,181.7 986.6,173.3 		"/>
		<g>
			<path id="XMLID_104_" class="st28" d="M1038.8,227.1c-22,0-39.8-17.9-39.8-39.8s17.9-39.8,39.8-39.8c22,0,39.8,17.9,39.8,39.8
				S1060.7,227.1,1038.8,227.1z M1038.8,163c-13.4,0-24.3,10.9-24.3,24.3s10.9,24.3,24.3,24.3c13.4,0,24.3-10.9,24.3-24.3
				S1052.2,163,1038.8,163z"/>
		</g>
		<g>
			<path id="XMLID_103_" class="st72" d="M1001.3,193.7h-89.4c-4.3,0-7.8-3.5-7.8-7.8s3.5-7.8,7.8-7.8h89.4c4.3,0,7.8,3.5,7.8,7.8
				S1005.6,193.7,1001.3,193.7z"/>
			<path class="st28" d="M1009.1,186c0-4.3-3.5-7.8-7.8-7.8h-63.8c-4.3,0-7.8,3.5-7.8,7.8s3.5,7.8,7.8,7.8h63.8
				C1005.6,193.7,1009.1,190.3,1009.1,186z"/>
		</g>
		<g>
			<path id="_Clipping_Path_12_7_" class="st73" d="M1004.1,274.4l12.9,0l0-8.2l-4.2,1.1c-0.3,1.4-1.1,2.6-2.3,3.4
				c-1.9,1.2-3.9,0.3-5.4,1.7C1004.5,272.9,1004.2,273.6,1004.1,274.4z"/>
			<path id="_Clipping_Path_13_7_" class="st74" d="M950.1,270.3l14.1,2.4l1.5-9l-4.6-0.6c-1,2.9-2.3,3.9-3.3,4.3
				c-2.2,0.9-4.3-0.5-6.3,0.9C950.9,268.8,950.4,269.5,950.1,270.3z"/>
			<path class="st25" d="M977,162.8c3.2,1.3,6.8,0.8,9.5-1.3c-2-2.7-3.1-5.9-3.2-9.2l-8,1L977,162.8z"/>
			<path class="st75" d="M981.1,154.9c1.3-0.7,2.3-1.8,2.9-3.2c1.8-3.7,0.2-8.2-3.5-9.9c-2.1-1-4.5-1-6.6,0.1
				c-1.2-0.7-2.8-0.3-3.5,1c-0.5,0.9-0.4,2,0.2,2.8c0,0.2,0,0.5,0,0.7c0.3,2.7,1.6,5.1,3.7,6.9L981.1,154.9z"/>
			<path class="st25" d="M970.6,145.7c-0.1,0.9-0.2,1.8-0.4,2.6c-0.1,0.6-0.3,1-0.3,1.1c-0.3,1-0.8,2-1.3,2.9l1.5,0.4l0.8,4.8
				c1.9,0.7,4,1,6,0.8c1.7-0.1,3.5-0.2,4.4-1.5c0.3-0.4,0.5-0.9,0.6-1.4c0.1-0.3,0.3-0.6,0.4-0.9c0.2-0.4,0.4-0.8,0.8-1.4
				c-0.6,0.3-1.3,0.4-2,0.3c-0.7,0.1-1.3-0.2-1.8-0.6c-0.7-0.8,0-2-0.6-2.4c-0.3-0.2-0.6-0.2-0.9,0c-0.8,0.5-0.7,2.3-0.7,2.3
				l-1.3-0.2c0-0.8-0.2-1.7-0.5-2.4c-0.6-1.2-1.2-1.2-1.6-2.3c-0.4-1.1,0-1.7-0.4-2.1C972.7,145.4,972.2,145.3,970.6,145.7z"/>
			<path class="st25" d="M938.7,191.4c0.6-0.2,1.1-0.2,1.7-0.1c0.9,0.2,3.9,0.8,3.9,1.8c0,0.4-0.7,0.8-1.1,0.9
				c-0.7,0.2-1.3-0.6-2.2-0.5c-0.2,0-0.3,0-0.5,0c-0.5,0-0.7,0-0.8-0.1c0-0.1,0.4-0.5,0.3-0.8c-0.1-0.5-1.9-0.5-1.9-0.8
				C938.1,191.6,938.5,191.5,938.7,191.4z"/>
			<path class="st57" d="M997.4,191.1c1.2,2.4,2.2,4.8,3.2,7.5c3.8,9.7,6.1,20,7,30.4c1.4,3.5,2.7,7.2,3.9,11.2
				c2.6,8.6,4.6,17.5,5.7,26.4l-6.9,1.3l-11.6-35.8c-0.6-1.5-1.5-3.7-2.6-6.3c-8-19.3-8.7-22.8-7.5-26.1
				C989.4,197.6,991.2,194.1,997.4,191.1z"/>
			<path class="st25" d="M945.3,196c0.6-0.9-0.2-2.8-1.5-3.5c-0.8-0.4-1.8-0.4-2.7-0.1c-0.9,0.3-0.9,0.7-1.9,1.3
				c-1.9,1.1-3.9,0.4-4.1,1c0,0.1,0.1,0.3,0.6,0.7c-0.1,0.1-0.1,0.2-0.1,0.4c0.1,0.3,0.7,0.4,1,0.4c1.7,0.3,3.4,0.5,5.1,0.5
				C943.9,196.5,945,196.4,945.3,196z"/>
			<path class="st57" d="M980,194.4c-5.1,10.9-9.5,22.2-13.1,33.7c-3.8,11.9-6.8,24.1-9,36.4l7.8,0.3c1.3-4.9,2.8-10,4.5-15.3
				c2.3-7.2,4.8-13.9,7.2-20.3c11.4-10.1,19.2-18.8,21.5-23.2c0.9-1.7,2.5-4.6,1.6-7.5c-0.1-0.5-0.5-1.3-1.3-3.1
				c-0.7-1.8-1.4-3.2-1.9-4.2c-5.6,1.9-11.5,2.9-17.5,3L980,194.4z"/>
			<path class="st23" d="M958.4,185.1c-4.7,2.5-9.5,5-14.2,7.6c0.5,1.5,1,3.1,1.5,4.6c6.2-2.2,12.5-4.4,18.7-6.7
				c2-3.6,4.1-7.3,6.2-10.9c2-3.4,4-6.7,5.9-10c-1.2-0.8-2.6-2-3.5-3.8c-1.5-2.9-0.8-5.3-1.4-5.5
				C970.8,160.1,967.5,165.3,958.4,185.1z"/>
			<path class="st23" d="M993.2,169.1l-0.9-4.4c-0.8-3.9-4.5-6.5-8.5-6l-11.2,1.6c-0.3,0-0.6,0.1-0.9,0.2
				c-2.7,5.4-1.1,10.7-2.1,16.1c0.2,0,0.5,0,0.7-0.1c1.8,6.9,3.5,13.7,5.3,20.6l8.3,1.2c5.4,0.8,10.9-0.5,15.3-3.7l1.2-0.9
				L993.2,169.1z"/>
		</g>
		<rect x="701.3" y="930.1" class="st57" width="413.8" height="34.3"/>
	</g>
</g>
</svg>
