<?xml version="1.0" encoding="utf-8"?>
<!-- Generator: Adobe Illustrator 21.0.2, SVG Export Plug-In . SVG Version: 6.00 Build 0)  -->
<svg version="1.1" id="Layer_1" xmlns="http://www.w3.org/2000/svg" xmlns:xlink="http://www.w3.org/1999/xlink" x="0px" y="0px"
	 viewBox="0 0 752.3 200" style="enable-background:new 0 0 752.3 200;" xml:space="preserve">
<style type="text/css">
	.st0{fill:#42526E;}
</style>
<circle class="st0" cx="583.3" cy="19.6" r="19.6"/>
<path class="st0" d="M198.5,198.4c-28.5,0-42.7-16.3-42.7-43.5V83.2H130v-28h25.8V19.3l34-8.4v44.3h35.6v28h-35.6v68.8
	c0,10.9,4.9,15.5,15.8,15.5c7.1,0,12.8-0.3,22-1.4v28.5C218.1,197,208.6,198.4,198.5,198.4z"/>
<path class="st0" d="M319.8,85.3c-23.9,0-36.4,17.1-36.4,39.9v71.2h-34.2V55.2H278l3,21.2c6.5-16.3,23.4-23.1,39.9-23.1
	c3.5,0,7.1,0.3,10.6,0.8v32.6C327.7,85.9,323.6,85.3,319.8,85.3z"/>
<path class="st0" d="M441.9,196.5l-2.4-18.5c-6.8,13.9-22.6,22-40.5,22c-30.2,0-48.9-20.4-48.9-50.5V55.2h34v86.7
	c0,16.6,6.5,26.9,24.5,26.9c7.9,0,13.3-3,17.4-7.1c8.2-7.6,10.3-20.4,10.3-31.8V55.2h34v141.3H441.9z"/>
<path class="st0" d="M531,198.1c-23.1,0-38.6-11.1-38.6-38V0h34.2v154.3c0,8.2,1.9,13.6,13.6,13.6c3,0,3.8-0.3,5.7-0.3v28.5
	C539.1,197.6,537.8,198.1,531,198.1z"/>
<path class="st0" d="M566.1,196.5V55.2h34.5v141.3H566.1z"/>
<path class="st0" d="M735.4,198.6c-14.7,0-22.8-9.2-23.9-19.8c-6.5,11.4-22.8,21.2-42.9,21.2c-33.7,0-51.1-21.2-51.1-44.3
	c0-26.9,20.9-42.4,47.8-44.3l41.6-3v-8.7c0-13.3-4.6-22.3-23.9-22.3c-15.8,0-25,7.1-25.8,20.1h-32.9c1.9-31.8,27.2-45.9,58.7-45.9
	c24.2,0,44.8,7.6,53,28.8c3.5,9,4.1,19,4.1,28.5v52.4c0,6.5,2.2,9,7.9,9c2.2,0,4.3-0.5,4.3-0.5v25
	C746.6,197.3,743.6,198.6,735.4,198.6z M706.9,133.7l-35.9,2.7c-10.3,0.8-20.4,7.1-20.4,18.5c0,10.9,9.5,17.7,20.1,17.7
	c21.2,0,36.1-11.4,36.1-32.3V133.7z"/>
<g>
	<path class="st0" d="M51.3,0C20.1,0.2,0,21.1,0,52.8c0,26.2,17.1,48.6,26.8,82.7c5.6,19.5,8.6,43.4,10.2,61h28.7
		c1.6-17.6,4.6-41.5,10.2-61c9.7-34.1,26.8-56.5,26.8-82.7C102.7,21.1,82.5,0.2,51.3,0z M51.5,80.6c-13,0-23.5-10.5-23.5-23.5
		s10.5-23.5,23.5-23.5c13,0,23.5,10.5,23.5,23.5S64.5,80.6,51.5,80.6z"/>
</g>
</svg>
