<?xml version="1.0" encoding="utf-8"?>
<!-- Generator: Adobe Illustrator 21.0.2, SVG Export Plug-In . SVG Version: 6.00 Build 0)  -->
<svg version="1.1" id="Layer_1" xmlns="http://www.w3.org/2000/svg" xmlns:xlink="http://www.w3.org/1999/xlink" x="0px" y="0px"
	 viewBox="0 0 320 355.1" style="enable-background:new 0 0 320 355.1;" xml:space="preserve">
<style type="text/css">
	.st0{fill:#0049B0;}
	.st1{fill:#FFFFFF;}
	.st2{fill:#FFE380;}
	.st3{fill:#091E42;}
	.st4{fill:#79F2C0;}
	.st5{fill:none;stroke:#DFE1E5;stroke-width:2;stroke-miterlimit:10;}
	.st6{fill:#DFE1E5;}
	.st7{fill:none;}
</style>
<g>
	<path class="st0" d="M10,77.8v19.1c0,2.8,2.2,5,5,5h59.6c2.8,0,5-2.2,5-5V77.8c0-2.8-2.2-5-5-5H15C12.2,72.8,10,75,10,77.8z"/>
	<g>
		<path class="st1" d="M28.6,81.9c2.9,0,5.5,2.1,5.5,5.6c0,3.4-2.6,5.5-5.5,5.5c-2.9,0-5.5-2.1-5.5-5.5
			C23.2,84.1,25.8,81.9,28.6,81.9z M28.6,91c1.6,0,3.3-1.1,3.3-3.5s-1.7-3.5-3.3-3.5c-1.6,0-3.3,1.1-3.3,3.5S27,91,28.6,91z"/>
		<path class="st1" d="M38.7,88.8v4h-2.1V82.2h4c2.1,0,3.5,1.4,3.5,3.3c0,1.9-1.4,3.3-3.5,3.3H38.7z M40.4,87c1,0,1.7-0.6,1.7-1.5
			c0-0.9-0.6-1.5-1.7-1.5h-1.6v3H40.4z"/>
		<path class="st1" d="M46.5,92.8V82.2h6.7v2h-4.6v2.4h4.2v1.8h-4.2v2.5h4.6v1.9H46.5z"/>
		<path class="st1" d="M62.8,92.8L58,85.2v7.5h-2.1V82.2h2.6l4.4,7v-7H65v10.6H62.8z"/>
	</g>
</g>
<g>
	<path class="st2" d="M40,134.6v19.1c0,2.8,2.2,5,5,5h123.6c2.8,0,5-2.2,5-5v-19.1c0-2.8-2.2-5-5-5H45C42.2,129.6,40,131.8,40,134.6
		z"/>
	<g>
		<path class="st3" d="M54.8,149.6V139h2.1v10.6H54.8z"/>
		<path class="st3" d="M67,149.6l-4.8-7.5v7.5h-2.1V139h2.6l4.4,7v-7h2.1v10.6H67z"/>
		<path class="st3" d="M78.9,145.6v4h-2.1V139h4c2.1,0,3.5,1.4,3.5,3.3c0,1.9-1.4,3.3-3.5,3.3H78.9z M80.5,143.8
			c1,0,1.7-0.6,1.7-1.5c0-0.9-0.6-1.5-1.7-1.5h-1.6v3H80.5z"/>
		<path class="st3" d="M89.8,145.5h-1.1v4.1h-2.1V139h4.2c2.1,0,3.4,1.4,3.4,3.3c0,1.5-0.9,2.6-2.3,3l2.3,4.3h-2.3L89.8,145.5z
			 M90.4,143.8c1,0,1.7-0.6,1.7-1.5c0-0.9-0.6-1.5-1.7-1.5h-1.7v3H90.4z"/>
		<path class="st3" d="M101.5,138.8c2.9,0,5.5,2.1,5.5,5.5c0,3.4-2.6,5.5-5.5,5.5c-2.9,0-5.5-2.1-5.5-5.5
			C96,140.9,98.6,138.8,101.5,138.8z M101.5,147.8c1.6,0,3.3-1.1,3.3-3.5c0-2.4-1.7-3.5-3.3-3.5c-1.6,0-3.3,1.1-3.3,3.5
			C98.2,146.7,99.9,147.8,101.5,147.8z"/>
		<path class="st3" d="M117.5,149.6l-0.1-1.2c-0.5,0.7-1.5,1.4-3.1,1.4c-2.9,0-5.3-2.1-5.3-5.5s2.6-5.5,5.4-5.5
			c2.8,0,4.3,1.6,4.9,3.3l-2,0.7c-0.3-0.9-1.2-2-2.9-2c-1.6,0-3.3,1.1-3.3,3.6c0,2.4,1.6,3.6,3.4,3.6c2,0,2.7-1.3,2.8-2.1h-3.4v-1.8
			h5.3v5.5H117.5z"/>
		<path class="st3" d="M125.1,145.5h-1.1v4.1H122V139h4.2c2.1,0,3.4,1.4,3.4,3.3c0,1.5-0.9,2.6-2.3,3l2.3,4.3h-2.3L125.1,145.5z
			 M125.7,143.8c1,0,1.7-0.6,1.7-1.5c0-0.9-0.6-1.5-1.7-1.5h-1.7v3H125.7z"/>
		<path class="st3" d="M132.1,149.6V139h6.7v2h-4.6v2.4h4.2v1.8h-4.2v2.5h4.6v1.9H132.1z"/>
		<path class="st3" d="M146.9,142.1c-0.1-0.6-0.6-1.5-1.9-1.5c-1,0-1.7,0.6-1.7,1.3c0,0.6,0.4,1,1.2,1.2l1.5,0.3
			c1.9,0.4,3,1.6,3,3.1c0,1.6-1.4,3.3-3.8,3.3c-2.8,0-4.1-1.8-4.2-3.3l1.9-0.5c0.1,1,0.8,2,2.3,2c1.1,0,1.7-0.6,1.7-1.3
			c0-0.6-0.5-1.1-1.3-1.3l-1.5-0.3c-1.7-0.3-2.8-1.4-2.8-3c0-1.9,1.7-3.3,3.7-3.3c2.6,0,3.6,1.6,3.8,2.8L146.9,142.1z"/>
		<path class="st3" d="M156.7,142.1c-0.1-0.6-0.6-1.5-1.9-1.5c-1,0-1.7,0.6-1.7,1.3c0,0.6,0.4,1,1.2,1.2l1.5,0.3
			c1.9,0.4,3,1.6,3,3.1c0,1.6-1.4,3.3-3.8,3.3c-2.8,0-4.1-1.8-4.2-3.3l1.9-0.5c0.1,1,0.8,2,2.3,2c1.1,0,1.7-0.6,1.7-1.3
			c0-0.6-0.5-1.1-1.3-1.3l-1.5-0.3c-1.7-0.3-2.8-1.4-2.8-3c0-1.9,1.7-3.3,3.7-3.3c2.6,0,3.6,1.6,3.8,2.8L156.7,142.1z"/>
	</g>
</g>
<g>
	<path class="st4" d="M235.8,305.1v19.1c0,2.8,2.2,5,5,5H305c2.8,0,5-2.2,5-5v-19.1c0-2.8-2.2-5-5-5h-64.2
		C238.1,300.1,235.8,302.3,235.8,305.1z"/>
	<g>
		<path class="st3" d="M251.5,320.1v-10.6h3.8c3,0,5.2,2,5.2,5.3c0,3.4-2.2,5.3-5.3,5.3H251.5z M255.2,318.2c1.7,0,3.2-1.1,3.2-3.4
			c0-2.3-1.4-3.4-3.2-3.4h-1.7v6.8H255.2z"/>
		<path class="st3" d="M267.9,309.3c2.9,0,5.5,2.1,5.5,5.5c0,3.4-2.6,5.5-5.5,5.5c-2.9,0-5.5-2.1-5.5-5.5
			C262.5,311.4,265.1,309.3,267.9,309.3z M267.9,318.4c1.7,0,3.3-1.1,3.3-3.5c0-2.4-1.7-3.5-3.3-3.5c-1.6,0-3.3,1.1-3.3,3.5
			C264.6,317.2,266.3,318.4,267.9,318.4z"/>
		<path class="st3" d="M282.9,320.1l-4.8-7.5v7.5H276v-10.6h2.6l4.4,7v-7h2.1v10.6H282.9z"/>
		<path class="st3" d="M288.2,320.1v-10.6h6.7v2h-4.6v2.4h4.2v1.8h-4.2v2.5h4.6v2H288.2z"/>
	</g>
</g>
<g>
	<g>
		<path class="st5" d="M85.6,87.3h16.2c2.8,0,5,2.2,5,5v24.1"/>
		<g>
			<polygon class="st6" points="101.8,115 106.8,123.6 111.8,115 			"/>
		</g>
	</g>
</g>
<g>
	<path class="st2" d="M85.7,191.4v19.1c0,2.8,2.2,5,5,5h138.6c2.8,0,5-2.2,5-5v-19.1c0-2.8-2.2-5-5-5H90.7
		C87.9,186.4,85.7,188.7,85.7,191.4z"/>
	<g>
		<path class="st3" d="M100.7,202.4v-6.9h2.1v6.7c0,1.4,0.8,2.1,2,2.1c1.3,0,2-0.7,2-2.1v-6.7h2.1v6.9c0,2.6-1.8,4-4.1,4
			C102.6,206.4,100.7,205,100.7,202.4z"/>
		<path class="st3" d="M118.9,206.2l-4.8-7.5v7.5H112v-10.6h2.6l4.4,7v-7h2.1v10.6H118.9z"/>
		<path class="st3" d="M124.2,206.2v-10.6h3.8c3,0,5.2,2,5.2,5.3c0,3.4-2.2,5.3-5.3,5.3H124.2z M128,204.3c1.7,0,3.2-1.1,3.2-3.4
			s-1.4-3.4-3.2-3.4h-1.7v6.8H128z"/>
		<path class="st3" d="M135.9,206.2v-10.6h6.7v2h-4.6v2.4h4.2v1.8h-4.2v2.5h4.6v1.9H135.9z"/>
		<path class="st3" d="M148.5,202.1h-1.1v4.1h-2.1v-10.6h4.2c2.1,0,3.4,1.4,3.4,3.3c0,1.5-0.9,2.6-2.3,3l2.3,4.3h-2.3L148.5,202.1z
			 M149.1,200.3c1,0,1.7-0.6,1.7-1.5c0-0.9-0.6-1.5-1.7-1.5h-1.7v3H149.1z"/>
		<path class="st3" d="M163.1,202.1H162v4.1h-2.1v-10.6h4.2c2.1,0,3.4,1.4,3.4,3.3c0,1.5-0.9,2.6-2.3,3l2.3,4.3h-2.3L163.1,202.1z
			 M163.7,200.3c1,0,1.7-0.6,1.7-1.5c0-0.9-0.6-1.5-1.7-1.5H162v3H163.7z"/>
		<path class="st3" d="M170,206.2v-10.6h6.7v2h-4.6v2.4h4.2v1.8h-4.2v2.5h4.6v1.9H170z"/>
		<path class="st3" d="M186.3,195.5h2.2l-3.9,10.6h-2.1l-3.9-10.6h2.3l2.8,7.9L186.3,195.5z"/>
		<path class="st3" d="M190.6,206.2v-10.6h2.1v10.6H190.6z"/>
		<path class="st3" d="M195.9,206.2v-10.6h6.7v2H198v2.4h4.2v1.8H198v2.5h4.6v1.9H195.9z"/>
		<path class="st3" d="M217.3,195.5h2.1l-2.9,10.6h-2.1l-2.4-7.6l-2.4,7.6h-2.2l-3-10.6h2.2l1.9,7.3l2.4-7.3h2.1l2.4,7.4
			L217.3,195.5z"/>
	</g>
</g>
<g>
	<path class="st2" d="M124.8,248.3v19.1c0,2.8,2.2,5,5,5H275c2.8,0,5-2.2,5-5v-19.1c0-2.8-2.2-5-5-5H129.8
		C127,243.3,124.8,245.5,124.8,248.3z"/>
	<g>
		<path class="st3" d="M135.5,263.3v-10.6h6.7v2h-4.6v2.6h4.1v1.9h-4.1v4.1H135.5z"/>
		<path class="st3" d="M144.7,263.3v-10.6h2.1v10.6H144.7z"/>
		<path class="st3" d="M156.8,263.3l-4.8-7.5v7.5h-2.1v-10.6h2.6l4.4,7v-7h2.1v10.6H156.8z"/>
		<path class="st3" d="M168.5,260.9h-4.3l-0.9,2.4h-2.2l4.1-10.6h2.4l4,10.6h-2.2L168.5,260.9z M164.9,259h2.9l-1.5-4L164.9,259z"/>
		<path class="st3" d="M173.8,263.3v-10.6h2.1v8.7h4.7v2H173.8z"/>
		<path class="st3" d="M193.7,260.9h-4.3l-0.9,2.4h-2.2l4.1-10.6h2.4l4,10.6h-2.2L193.7,260.9z M190.1,259h2.9l-1.5-4L190.1,259z"/>
		<path class="st3" d="M201,259.3v4H199v-10.6h4c2.1,0,3.5,1.4,3.5,3.3c0,1.9-1.4,3.3-3.5,3.3H201z M202.7,257.5
			c1,0,1.7-0.6,1.7-1.5c0-0.9-0.6-1.5-1.7-1.5H201v3H202.7z"/>
		<path class="st3" d="M210.8,259.3v4h-2.1v-10.6h4c2.1,0,3.5,1.4,3.5,3.3c0,1.9-1.4,3.3-3.5,3.3H210.8z M212.5,257.5
			c1,0,1.7-0.6,1.7-1.5c0-0.9-0.6-1.5-1.7-1.5h-1.6v3H212.5z"/>
		<path class="st3" d="M221.7,259.2h-1.1v4.1h-2.1v-10.6h4.2c2.1,0,3.4,1.4,3.4,3.3c0,1.5-0.9,2.6-2.3,3l2.3,4.3h-2.3L221.7,259.2z
			 M222.3,257.4c1,0,1.7-0.6,1.7-1.5c0-0.9-0.6-1.5-1.7-1.5h-1.7v3H222.3z"/>
		<path class="st3" d="M233.4,252.4c2.9,0,5.5,2.1,5.5,5.5c0,3.4-2.6,5.5-5.5,5.5c-2.9,0-5.5-2.1-5.5-5.5
			C228,254.6,230.6,252.4,233.4,252.4z M233.4,261.5c1.6,0,3.3-1.1,3.3-3.5c0-2.4-1.7-3.5-3.3-3.5c-1.6,0-3.3,1.1-3.3,3.5
			C230.1,260.4,231.8,261.5,233.4,261.5z"/>
		<path class="st3" d="M247.8,252.7h2.2l-3.9,10.6h-2.1l-3.9-10.6h2.3l2.8,7.9L247.8,252.7z"/>
		<path class="st3" d="M257.6,260.9h-4.3l-0.9,2.4h-2.2l4.1-10.6h2.4l4,10.6h-2.2L257.6,260.9z M253.9,259h2.9l-1.5-4L253.9,259z"/>
		<path class="st3" d="M262.8,263.3v-10.6h2.1v8.7h4.7v2H262.8z"/>
	</g>
</g>
<circle class="st6" cx="44.4" cy="30.7" r="12.3"/>
<g>
	<g>
		<line class="st5" x1="44.4" y1="43" x2="44.4" y2="59.6"/>
		<g>
			<polygon class="st6" points="39.4,58.1 44.4,66.8 49.4,58.1 			"/>
		</g>
	</g>
</g>
<g>
	<g>
		<path class="st5" d="M34,144.1h-2.1c-2.8,0-5-2.2-5-5V115"/>
		<g>
			<polygon class="st6" points="31.9,116.5 26.9,107.8 21.9,116.5 			"/>
		</g>
	</g>
</g>
<g>
	<g>
		<path class="st5" d="M79.7,201h-2.1c-2.8,0-5-2.2-5-5v-24.1"/>
		<g>
			<polygon class="st6" points="77.6,173.3 72.6,164.7 67.6,173.3 			"/>
		</g>
	</g>
</g>
<g>
	<g>
		<path class="st5" d="M179.6,144.1h16.2c2.8,0,5,2.2,5,5v24.1"/>
		<g>
			<polygon class="st6" points="195.8,171.8 200.8,180.4 205.8,171.8 			"/>
		</g>
	</g>
</g>
<g>
	<g>
		<path class="st5" d="M240.3,201h10.2c2.8,0,5,2.2,5,5v24.1"/>
		<g>
			<polygon class="st6" points="250.5,228.6 255.5,237.3 260.5,228.6 			"/>
		</g>
	</g>
</g>
<g>
	<g>
		<path class="st5" d="M118.8,257.8h-2.1c-2.8,0-5-2.2-5-5v-24.1"/>
		<g>
			<polygon class="st6" points="116.7,230.1 111.7,221.5 106.7,230.1 			"/>
		</g>
	</g>
</g>
<rect x="123" y="243.3" class="st7" width="6.8" height="29.1"/>
<g>
	<g>
		<path class="st5" d="M286,257.8h4.2c2.8,0,5,2.2,5,5v24.1"/>
		<g>
			<polygon class="st6" points="290.2,285.5 295.2,294.1 300.2,285.5 			"/>
		</g>
	</g>
</g>
</svg>
